/* XPM */
static char *_9790bce3fe24610a806a27b105e6818BTDZtBjhw7LA2OTr[] = {
/* columns rows colors chars-per-pixel */
"64 64 92 1 ",
"  c #1E1F23",
". c #1E1F24",
"X c #1F2227",
"o c #212228",
"O c #24212B",
"+ c #21242A",
"@ c #22272D",
"# c #24272F",
"$ c #23292F",
"% c #24292F",
"& c #292A2D",
"* c #2A2C2F",
"= c #262B32",
"- c #262C31",
"; c #292B36",
": c #32283B",
"> c #36283F",
", c #2E3237",
"< c #2F3338",
"1 c #2F3438",
"2 c #303439",
"3 c #373B3F",
"4 c #352A40",
"5 c #362C42",
"6 c #3B2C46",
"7 c #3F2F4B",
"8 c #373046",
"9 c #383147",
"0 c #3E3345",
"q c #3E314A",
"w c #42364B",
"e c #42314E",
"r c #433350",
"t c #443351",
"y c #453452",
"u c #443354",
"i c #473655",
"p c #483752",
"a c #483656",
"s c #4A3954",
"d c #493659",
"f c #473958",
"g c #4B3858",
"h c #4E3B5A",
"j c #4D3E5A",
"k c #4B3A5C",
"l c #4E395F",
"z c #513D5C",
"x c #543F5E",
"c c #4E3B60",
"v c #513B63",
"b c #533E65",
"n c #553E66",
"m c #583F6B",
"M c #54405E",
"N c #574067",
"B c #584168",
"V c #58406B",
"C c #59406C",
"Z c #5C466E",
"A c #5B4170",
"S c #5C4371",
"D c #5C4471",
"F c #5F4873",
"G c #604974",
"H c gray39",
"J c #676767",
"K c #676768",
"L c #6A6A6A",
"P c #6B6B6C",
"I c #6C6C6D",
"U c #6F6F70",
"Y c #727272",
"T c #727472",
"R c #757576",
"E c #777778",
"W c #787778",
"Q c #7B7B7B",
"! c #9A9A9A",
"~ c gray62",
"^ c gray63",
"/ c #A4A4A4",
"( c #AAAAAA",
") c #ACACAC",
"_ c #AFAFB0",
"` c gray69",
"' c #B4B3B3",
"] c #B4B4B4",
"[ c #C1C1C1",
"{ c #C6C6C6",
"} c #C9C8C8",
"| c #CDCDCD",
/* pixels */
"!~!~~~!!!~~~^^^///^^^^^^///////^^~~^^///////^^^^^^/////((()()_(H",
"^QRRRRRRRRWWWWQQQWWRRRQQQQQQQQQQQQQWQQQQQQQWWWQQQQQQQQQQQQERRQ}J",
"!IDSSSSSSSSSSSSSSSb---fSSSSSSSSSSSSSSSSSSSSSSSSSSSSSSSSSSSSSSG}J",
"~IVmmmmCCCCVmmmCCmc$;9kCCmmmmmmmCCCCCCmCCVmmmmmCCmmmCCCmCCVmmZ}L",
"/Iaaaaahxxxgaaaxxae$9SVxhaaaaaaaxxxxxhahxgaaaaaxzaaahxhazxgaaj}I",
"(Iaaaaahzzzgaaazzae$9SNzhaaaaaaazzzzzhahzgaaaaazhaaahzhahzgaaj}I",
")Iaaaaaaaaaaaaaaaae$9Sbaaaaaaaaaaaaaaaaaaaaaaaaaaaaaaaaaaaaaaj}L",
")Iaahhaaaaaaaaaaae6$9Snhgaaaaaaaaaaaaaaaaaaaaaaaaaaaaaaaaaaaaj}L",
")Iagxzaaaaaaaaaaa4:$9SVxhaaaaaaaaaaaaaaaaaaaaaaaaaaaaaaaaaaaaj}L",
")Lagxzaaaaaaaaaaae6$9SVxhaaaaaaaaaaaaaaaaaaaaaaaaaaaaaaaaaaaaj}L",
"(Lagxzaaaaaaaaaaaae$9SVxhaaaaaaaaaaaaaaaaaaaaaaaaaaaaaaaaaaaaj}L",
"(LaaggaaaaaaaaaaaaeX5Sngaaaaaaaaaaaaaaaaaaaaaaaaaaaaaaaaaaaaaj}L",
"(Laaaaaaaaaaaaaaaae 4Sbaaaaaaaaaaaaaaaaaaaaaaaaaaaaaaaaaaaaaaj}L",
")Laaaaae666yaaaaaae 4Sbae6yaaaaaaaaaae66666yaaa67aaae6eaaaaaaj}L",
"`Laiiii7>>>riiiiiie 4Abi7>riiiiiiiiii7>>>>>riii>6iii7>7iiiiiij}L",
"`L======%%%X         ..   @===========%%%X                @==2}L",
"`L=========o..............#==============o.......  .......#==2}L",
"`LAAAAAAAAAAAAAAAAAAAAAAAAAAAAAAAAAAAAAAAAAAAAAAv 4AAAAAAAAAAF}L",
"`LCCCCCCmmmmmmmCCmmmmmCCCCVmmmmmmmmmmmmCCCCVmCCmlX5SCCCmmmmmmZ}L",
"`LMxxxxhaaaaaaaxxaaaaahxxxgaaaaaaaaaaaahxxxgaxxae$9SVxhaaaaaaj}L",
"`Lzzzzzhaaaaaaazzaaaaahzzzgaaaaaaaaaaaahzzzgazzae$9SNzhaaaaaaj}L",
"`Laaaaaaaaaaaaaaaaaaaaaaaaaaaaaaaaaaaaaaaaaaaaaae$9Sbaaaaaaaaj}L",
"`Laaaaaaaaaaaaaaaaaaaaaaaaaaaaaaaaaaaaaaaaaaaaae6$9Sbaaaaaaaaj}L",
"`Lsaaaaaaaaaaaaaaaaaaaaaaaaaaaaaaaaaaaaaaaaaaaa4:$9Sbaaaaaaaaj}L",
"`Laaaaaaaaaaaaaaaaaaaaaaaaaaeeaaaahhaaaaaaaaaaae6$9Snhgaaaaaaj}L",
"`Laaaaaaaaaaaaaaaaaaaaaaaaaa64aaagxzaaaaaaaaaaaae$9SVxhaaaaaaj}L",
"`Laaaaaaaaaiaaaaaaaaaaaaaaaaytaaaaggaaaaaaaaaaa64$9Sngaaaaaaaj}L",
"`Laaaaaaaaaaaaaaaaaaaaaaaaaaaaaaaaaaaaaaaaaaaaa4:$9Sbaaaaaaaaj}L",
"`Laaaaaaaaiaaaaaa6667aaaaaaaaaaaaaiaae666yaaaaatq$9Sbaaaaa766w}L",
"`Laiiiiiiiiiiiiii>>>6iiiiiiiiiiiiiiii7>>>riiiiiie$8Abiiiii6>>0}L",
"`L=============           @===========%%%X         ..   @==%%<}L",
"`L=============....    ...#==============o..............#====2}L",
"`PAAAAAAAAAAAAAAAAv   uAAAAAAAAAAAAAAAAAAAAAAAAAAAAAAAAAAAAAAF}L",
"]LVmmmmCCCCCCVmmmCv O4dmCCVmCCmmmmmVCCCCCCCVmmmmVCCmmmmmCCVmmZ}L",
"]Laaaaahxxxxxgaaaxs 4Sbahxgazxaaaaagxxxxxxxgaaaagxzaaaaazxgaaj}L",
"]LsaaaahzzzzzgaaazpX5Snghzgahzaaaaagzzzzzzzgaaaagzhaaaaahzgaaj}L",
"]Laaaaaaaaaaaaaaaae$9SVxhaaaaaaaaaaaaaaaaaaaaaaaaaaaaaaaaaaaaj}L",
"]Laaaaaaaaaaaaaaaae$9SVxhaaaaaaaaaaaaaaaaaaaaaaaaaaaaaaaaaaaaj}L",
"]Laaaaaaaaaaaaaaaae$9SVxhaaaaaaaaaaaaaaaaaaaaaaaaaaaaaaaaaaaaj}L",
"]Laahhaaaaaaaaaaae6$9Snhgaaaaaaaaaaaaaaaaaaaaaaaaaaaaaaaaaaaaj}L",
"]Lagxzaaaaaaaaaaa4:$9Sbaaaaaaaaaaaaaaaaaaaaaaaaaaaaaaaaaaaaaaj}L",
"`Lagxzaaaaaaaaaaat7X5Sbaaaaaaaaaaaaaaaaaaaaaaaaaaaaaaaaaaaaaaj}L",
")Lagxzaaaaaaaaaaaae 4Sbaaaaaaaaaaaaaaaaaaaaaaaaaaaaaaaaaaaaaaj}L",
"(Laaggaaae666yaaaae 4SNzha76yaaaay67aaaaaaa7666ay67ae6eaaaaaaj}L",
"(Laiiiiii7>>>riiiie 4ANzhi6>tiiiit>6iiiiiii6>>>ir>6i7>7iiiiiij}L",
"(L=======+           ...  @%======%========X            @====2}L",
"/L=======@................#================o.....  .....#====2}L",
"/LAAAAAAAAAAAAAAAAAAAAAAAAAAAAAAAAAAAAAAAAAAAAAAv 4AAAAAAAAAAF}L",
"^LVmmmmCCCmCCVmmmCCCCCCmmmmmmmmmmVCCCCmCCCCCCmmml 4SCmmmCCCCmZ}I",
"^Jaaaaahxhazxgaaaxxxxxhaaaaaaaaaagxxxhahxxxxxaaae 4Sbaaazxxxaj}I",
"^Jaaaaahzhahzgaaazzzzzhaaaaaaaaaagzzzhahzzzzzaat7X5Sngaahzzzaj}I",
"^Jaaaaaaaaaaaaaaaaaaaaaaaaaaaaaaaaaaaaaaaaaaaaa4:$9SVxhaaaaaaj}I",
"^Jaaaaaaaaaaaaaaaaaaaaaaaaaaaaaaaaaaaaaaaaaaaaa4:$9SVxhaaaaaaj}I",
"^Jaaaaaaaaaaaaaaaaaaaaaaaaaaaaaaaaaaaaaaaaaaaaa4:$9SVxhaaaaaaj}I",
"/Jaaaaaaaaaaaaaaaaaaaaaaaaaaaaaaaaaaaaaaaaaaaaae6$9SVxhaaaaaaj}I",
"/Jaaaaaaaaaaaaaaaaaaaaaaaaaaaaaaaaaaaaaaaaaaaaaae$9SVxhaaaaaaj}I",
"/Kaaaaaaaaaaaaaaaaaaaaaaaaaaaaaaaaaaaaaaaaaaaaaae$9Sngaaaaaaaj}I",
"(Laaaaaaaaaaaaaaaaaaaaaaaaaaaaaaaaaaaaaaaaaaaaaae$9Sbaaaaaaaaj}I",
"(Laaay6eae6ya766667aaaaaaaaaaaaaaaaaaaae6ya76aaaeX5Sbaaa7666aj}I",
")Laiit>7i7>ti6>>>>6iiiiiiiiiiiiiiiiiiii7>ri6>iiie 4Abiii6>>>ij}I",
")I====%===%===%%$                                 X======%%%=2}I",
")T1,,,,,,,,,,,,,,&&&&&&&&&&&&&&&&&&&&&&&&&&&&&&&&&*,,,,,,,,,,3}I",
"'||{[[[[[[[[[[[[[[[[[[[[[[[[[[[[[[[[[[[[[[[[[[[[[[[[[[[[[[[[[[{I",
"YRYYYYYYYYYYYYYYYYYYYYYYYYYYYYYYYYYYYYYYYYYYYYYYYYYYYYYYYIIIYUUH"
};
