/* XPM */
static char * wood_gelano_xpm[] = {
"64 64 490 2",
"  	c #130D0B",
". 	c #2C211D",
"+ 	c #3C2D23",
"@ 	c #513C27",
"# 	c #493625",
"$ 	c #4D3926",
"% 	c #443223",
"& 	c #60462B",
"* 	c #584E48",
"= 	c #5B4229",
"- 	c #473A34",
"; 	c #18110F",
"> 	c #42301F",
", 	c #5F4529",
"' 	c #4F4138",
") 	c #5D4A3C",
"! 	c #47382D",
"~ 	c #54402F",
"{ 	c #664B2D",
"] 	c #533D28",
"^ 	c #5F514C",
"/ 	c #4E3F34",
"( 	c #000000",
"_ 	c #261C19",
": 	c #221A15",
"< 	c #352921",
"[ 	c #33251A",
"} 	c #6E5B4A",
"| 	c #644D39",
"1 	c #090605",
"2 	c #1B1412",
"3 	c #2F2420",
"4 	c #3B2A1C",
"5 	c #5B4838",
"6 	c #66503C",
"7 	c #634B34",
"8 	c #412F1D",
"9 	c #74604E",
"0 	c #69503B",
"a 	c #302521",
"b 	c #291F1B",
"c 	c #2D2014",
"d 	c #6A5636",
"e 	c #23180E",
"f 	c #614D2F",
"g 	c #382716",
"h 	c #37281D",
"i 	c #332516",
"j 	c #5A462E",
"k 	c #866842",
"l 	c #80633E",
"m 	c #5D482E",
"n 	c #715635",
"o 	c #776B64",
"p 	c #574230",
"q 	c #735E4D",
"r 	c #504137",
"s 	c #817167",
"t 	c #684B2D",
"u 	c #614932",
"v 	c #2B1E14",
"w 	c #5C432A",
"x 	c #654A2B",
"y 	c #5A4126",
"z 	c #3C2A17",
"A 	c #4A341F",
"B 	c #433732",
"C 	c #4D3925",
"D 	c #A15751",
"E 	c #DC7170",
"F 	c #E07271",
"G 	c #D86D6B",
"H 	c #CA6665",
"I 	c #77443D",
"J 	c #4C3825",
"K 	c #4A3C35",
"L 	c #634D39",
"M 	c #95514D",
"N 	c #DC7471",
"O 	c #DD7371",
"P 	c #E17672",
"Q 	c #E27472",
"R 	c #E37271",
"S 	c #E77472",
"T 	c #E87472",
"U 	c #E97472",
"V 	c #EB7372",
"W 	c #D46867",
"X 	c #574128",
"Y 	c #694C2C",
"Z 	c #150D07",
"` 	c #583F28",
" .	c #D97472",
"..	c #DC7371",
"+.	c #DF7672",
"@.	c #DF7371",
"#.	c #E37572",
"$.	c #E57472",
"%.	c #E47272",
"&.	c #E77373",
"*.	c #E87373",
"=.	c #EB7272",
"-.	c #EC7272",
";.	c #EE7171",
">.	c #EF7171",
",.	c #3D2220",
"'.	c #22170D",
").	c #92754B",
"!.	c #583F27",
"~.	c #4D3227",
"{.	c #E79997",
"].	c #FDDFDF",
"^.	c #F2BAB9",
"/.	c #E27473",
"(.	c #E67573",
"_.	c #EE5D5C",
":.	c #FC1B1B",
"<.	c #F34745",
"[.	c #ED7171",
"}.	c #F07171",
"|.	c #F37171",
"1.	c #F47171",
"2.	c #9C7D51",
"3.	c #503B26",
"4.	c #E67472",
"5.	c #F07272",
"6.	c #F27373",
"7.	c #F37272",
"8.	c #F57171",
"9.	c #F87171",
"0.	c #F97070",
"a.	c #706765",
"b.	c #9C7C4E",
"c.	c #615046",
"d.	c #7D6242",
"e.	c #CE6D6B",
"f.	c #EF9695",
"g.	c #F93030",
"h.	c #F37774",
"i.	c #F77070",
"j.	c #F96666",
"k.	c #B14643",
"l.	c #97846F",
"m.	c #A48459",
"n.	c #6E5B4C",
"o.	c #63472B",
"p.	c #DE7472",
"q.	c #F3ABAB",
"r.	c #ED7372",
"s.	c #F17271",
"t.	c #F77171",
"u.	c #F96868",
"v.	c #F85C5C",
"w.	c #F85656",
"x.	c #AD5D58",
"y.	c #E07472",
"z.	c #ED7271",
"A.	c #EF7271",
"B.	c #F17171",
"C.	c #F47372",
"D.	c #F57272",
"E.	c #F97170",
"F.	c #F96E6E",
"G.	c #F85E5E",
"H.	c #6F5839",
"I.	c #E67A79",
"J.	c #F6B0B0",
"K.	c #F87272",
"L.	c #F97272",
"M.	c #F96C6C",
"N.	c #F96464",
"O.	c #880C0C",
"P.	c #C03030",
"Q.	c #623828",
"R.	c #5E4A32",
"S.	c #87693F",
"T.	c #412F21",
"U.	c #E27373",
"V.	c #E57372",
"W.	c #E77272",
"X.	c #EB7773",
"Y.	c #F4ABAB",
"Z.	c #F6ABAA",
"`.	c #EE7373",
" +	c #F07372",
".+	c #FA7272",
"++	c #F96A6A",
"@+	c #F86262",
"#+	c #F85A5A",
"$+	c #A01B1B",
"%+	c #B82B2B",
"&+	c #904135",
"*+	c #745837",
"=+	c #E47372",
"-+	c #E87372",
";+	c #EB7472",
">+	c #EE7473",
",+	c #F86060",
"'+	c #F85858",
")+	c #873E31",
"!+	c #564027",
"~+	c #E97372",
"{+	c #EF7372",
"]+	c #FA2C2B",
"^+	c #F16C6C",
"/+	c #D65858",
"(+	c #D65151",
"_+	c #D54B4B",
":+	c #D54444",
"<+	c #D74545",
"[+	c #F55454",
"}+	c #B75B59",
"|+	c #EC7372",
"1+	c #F07472",
"2+	c #F27272",
"3+	c #D54E4E",
"4+	c #D54848",
"5+	c #BF3D3D",
"6+	c #4F3522",
"7+	c #503623",
"8+	c #4F3B26",
"9+	c #F27473",
"0+	c #F47373",
"a+	c #D54646",
"b+	c #B84444",
"c+	c #B2A3A3",
"d+	c #645555",
"e+	c #452F27",
"f+	c #796D66",
"g+	c #C86160",
"h+	c #F97676",
"i+	c #D74343",
"j+	c #AC3636",
"k+	c #AFA0A0",
"l+	c #605151",
"m+	c #646060",
"n+	c #484340",
"o+	c #827268",
"p+	c #6B5748",
"q+	c #F57474",
"r+	c #FA7676",
"s+	c #DF6161",
"t+	c #ED2F2F",
"u+	c #F22727",
"v+	c #AF3737",
"w+	c #9D6767",
"x+	c #666666",
"y+	c #A48354",
"z+	c #7D736C",
"A+	c #CE7373",
"B+	c #FA7373",
"C+	c #C63E3E",
"D+	c #484847",
"E+	c #705938",
"F+	c #6F6663",
"G+	c #969392",
"H+	c #EAEAEA",
"I+	c #C96868",
"J+	c #D65050",
"K+	c #D54949",
"L+	c #B43939",
"M+	c #AA3636",
"N+	c #B23838",
"O+	c #CC4141",
"P+	c #9D6E6E",
"Q+	c #584A4B",
"R+	c #60656A",
"S+	c #5F6469",
"T+	c #5E5E5E",
"U+	c #1D1917",
"V+	c #A5A4A3",
"W+	c #CCCCCC",
"X+	c #A18B8B",
"Y+	c #D04242",
"Z+	c #B14747",
"`+	c #A39494",
" @	c #9D8E8E",
".@	c #5E5255",
"+@	c #807D86",
"@@	c #807F88",
"#@	c #8B99A5",
"$@	c #8997A3",
"%@	c #8694A0",
"&@	c #84939F",
"*@	c #2E2522",
"=@	c #6C645F",
"-@	c #CAC9C9",
";@	c #655656",
">@	c #6D676D",
",@	c #827E87",
"'@	c #8C9BA6",
")@	c #82919D",
"!@	c #4B3725",
"~@	c #4D3B2B",
"{@	c #A5A5A5",
"]@	c #656464",
"^@	c #746565",
"/@	c #897A7A",
"(@	c #716971",
"_@	c #85818A",
":@	c #838088",
"<@	c #8E9DA8",
"[@	c #808F9B",
"}@	c #E8E8E8",
"|@	c #8C8C8C",
"1@	c #6D7275",
"2@	c #66686A",
"3@	c #5F5F5F",
"4@	c #564747",
"5@	c #746E73",
"6@	c #88848D",
"7@	c #87838C",
"8@	c #8E98A2",
"9@	c #909EA9",
"0@	c #798794",
"a@	c #332720",
"b@	c #E2E2E2",
"c@	c #646464",
"d@	c #BAC7CE",
"e@	c #B8C5CD",
"f@	c #B6C2CB",
"g@	c #B4C0C9",
"h@	c #B2BFC7",
"i@	c #B0BDC5",
"j@	c #AEBBC4",
"k@	c #9EABB3",
"l@	c #99A4AC",
"m@	c #8D8D94",
"n@	c #858087",
"o@	c #847E86",
"p@	c #89858C",
"q@	c #8F8A92",
"r@	c #8D8991",
"s@	c #8B8890",
"t@	c #8A868E",
"u@	c #95A1AC",
"v@	c #94A2AD",
"w@	c #92A0AB",
"x@	c #8A99A4",
"y@	c #7E8D9A",
"z@	c #2B1E13",
"A@	c #45362A",
"B@	c #524F4F",
"C@	c #C0CCD4",
"D@	c #A8B2BA",
"E@	c #B2BEC5",
"F@	c #ACB9C2",
"G@	c #AAB7C0",
"H@	c #A8B5BF",
"I@	c #A6B3BD",
"J@	c #A4B1BB",
"K@	c #A2AFB9",
"L@	c #A0ADB7",
"M@	c #9EACB6",
"N@	c #9CAAB4",
"O@	c #9AA8B2",
"P@	c #98A6B1",
"Q@	c #96A4AF",
"R@	c #8E9CA8",
"S@	c #72808C",
"T@	c #C2CED5",
"U@	c #BECAD2",
"V@	c #D2D6D8",
"W@	c #919CA5",
"X@	c #64686B",
"Y@	c #544A44",
"Z@	c #85919B",
"`@	c #7C8B98",
" #	c #6A5334",
".#	c #201711",
"+#	c #7C613D",
"@#	c #32271F",
"##	c #DDDDDD",
"$#	c #BCC9D0",
"%#	c #919CA3",
"&#	c #7F8C95",
"*#	c #7C613F",
"=#	c #574D48",
"-#	c #7A5E3D",
";#	c #949DA1",
">#	c #DBDBDC",
",#	c #D7D9DA",
"'#	c #55402B",
")#	c #897157",
"!#	c #8F6063",
"~#	c #60676D",
"{#	c #826B54",
"]#	c #684F35",
"^#	c #C1CDD4",
"/#	c #624C38",
"(#	c #F67373",
"_#	c #C4D0D7",
":#	c #DD6767",
"<#	c #7A8996",
"[#	c #302318",
"}#	c #9A6C70",
"|#	c #A3804D",
"1#	c #BCC8D0",
"2#	c #A26B6E",
"3#	c #E87779",
"4#	c #AD5642",
"5#	c #E06868",
"6#	c #CDD4D8",
"7#	c #AD4830",
"8#	c #634B37",
"9#	c #6D7B87",
"0#	c #BCC8CE",
"a#	c #9B402B",
"b#	c #B16062",
"c#	c #84929F",
"d#	c #595453",
"e#	c #808689",
"f#	c #D9DADB",
"g#	c #C3CDD4",
"h#	c #4E3A25",
"i#	c #554136",
"j#	c #5E452A",
"k#	c #3A2B21",
"l#	c #C0CCD3",
"m#	c #C45334",
"n#	c #554944",
"o#	c #4C3B29",
"p#	c #96929D",
"q#	c #7A6E68",
"r#	c #BFCBD2",
"s#	c #B1A8AA",
"t#	c #B14A30",
"u#	c #A1452B",
"v#	c #4B3825",
"w#	c #E96D6D",
"x#	c #392B24",
"y#	c #8B785E",
"z#	c #743726",
"A#	c #703F2C",
"B#	c #5B2923",
"C#	c #DB4E4E",
"D#	c #F45E5E",
"E#	c #0A0807",
"F#	c #665133",
"G#	c #B74C31",
"H#	c #F45757",
"I#	c #9298A2",
"J#	c #4F3A26",
"K#	c #60534B",
"L#	c #6B594A",
"M#	c #ADA5A8",
"N#	c #E8564E",
"O#	c #F56C6C",
"P#	c #9499A4",
"Q#	c #626B73",
"R#	c #746150",
"S#	c #9AA3AA",
"T#	c #B2BEC7",
"U#	c #AE4830",
"V#	c #8C9AA6",
"W#	c #8897A2",
"X#	c #7B8995",
"Y#	c #B4C0C8",
"Z#	c #B6C2CA",
"`#	c #DC5545",
" $	c #D66F72",
".$	c #B2BFC6",
"+$	c #A6B3BC",
"@$	c #A99696",
"#$	c #A79595",
"$$	c #B2959C",
"%$	c #96A4AE",
"&$	c #A5B1B8",
"*$	c #604F45",
"=$	c #493D34",
"-$	c #B1BDC6",
";$	c #575B5F",
">$	c #717375",
",$	c #76818B",
"'$	c #5A5551",
")$	c #A7B4BD",
"!$	c #575655",
"~$	c #4F4135",
"{$	c #7D858A",
"]$	c #9BA8B1",
"^$	c #99A6AF",
"/$	c #98A4AD",
"($	c #96A3AC",
"_$	c #8C99A2",
":$	c #757D83",
"<$	c #5C4F45",
"[$	c #AB8E68",
"}$	c #9F8872",
"|$	c #8E7247",
"1$	c #514742",
"  . + @ @ @ # # $ % % $ @ + & * = @ $ - @ ; . . @ @ @ @ + @ % > # @ # , ' ) @ @ ! ~ # = @ @ @ @ @ + { @ @ @ @ @ # ] ^ ] @ # / % ",
"( _ + @ @ @ # # : : ; < @ [ ] } = @ $ | $ 1 2 3 @ @ @ @ + 4 2   < $ % # 5 6 @ @ ~ 7 8 = @ @ @ @ @ + { @ @ @ @ @ 4 # 9 ] @ $ 0 4 ",
"( ( a # @ @ # 2 b a 4 @ @ c d 8 4 # # # e ( ( _ + @ @ @ _ 2 a . @ @ > f % g # # # h i ] @ @ @ @ @ + { @ @ @ # @ > j g % # # %   ",
"( ( + $ @ @ % 1 ; a % @ @ < k $ = = = = %   ( _ $ @ @ @   ( a < @ @ % l ] ] = = = ] % = @ @ # $ @ [ = @ @ @ # @ m n $ = = = = 4 ",
"  _ $ = @ @ %   ; . a @ @ + @ o , @ ! p # : 2 + { @ @ @ 2 ( . . % ] # @ * q @ $ r ] % = @ @ # # @ + { @ @ @ & @ # $ s = $ - = + ",
"_ 4 t = % @ > ( [ < . < % [ + ] @ @ p u # a v w { % @ @ ( 2 % 2 % < % b @ ] @ $ 0 ] + @ @ @ # # @ [ = @ @ @ @ @ 8 w = @ $ | = + ",
"x @ , @ @ @ 8   + + ; % % 2 + @ @ @ @ @ > y @ & @ @ @ @ 1 . # ; < # _ _ @ @ @ @ @ @ z = @ @ @ @ @ + { @ @ @ @ @ z w @ @ @ @ @ c ",
"= @ @ @ @ @ 8 $ $ $ % + # v + @ @ @ @ @ > A @ @ @ @ @ @ i @ $ % % % 4 _ @ @ @ @ @ @ i ] @ @ @ @ @ [ x @ @ @ @ @ % w @ @ $ $ @ c ",
"@ @ @ @ ] ] 8 y $ B = # r i + @ @ @ @ @ % % @ @ @ C D E F G H I J K # _ @ @ @ @ @ @ [ @ @ @ # $ @ c x $ K ] ! p # w @ @ @ @ @ [ ",
"@ @ = = = = 8 y $ L = $ L [ < $ @ @ , @ # # @ M N O P Q R S T U V W g . % @ @ , @ @ + @ @ @ @ @ @ c x $ 0 ] ~ u # w @ @ @ @ @ + ",
"x @ = = X Y 8 g > > > v   ( . Z $ { @ @ % `  ...+.@.#.$.%.&.*.=.-.;.>.,.'.4 w = @ @ % = @ @ = = @ c % > % % # % g = @ @ = X @ h ",
"x @ { = @ x 8 ).!.y   2 .   $ % $ = @ @ ~.{.].].^./.$.(._.:.<.[.;.}.|.1.$ % ] ] @ @ % = @ @ @ @ @ c 2.y w w , $ c @ @ @ @ @ @ 4 ",
"x $ @ @ $ @ # w ! p a : 2 a { @ @ @ @ 3.].].].].].].4.T :.:.:.5.6.7.8.9.0.@ @ @ @ @ # = $ @ $ $ @ + & - ] * = @ # w @ @ $ $ @ + ",
"& a.b.% c.= % y d.k % a b : = @ @ @ , e.].].].].].].f.V -.g.h.1.1.i.9.0.j.k.@ , @ @ > @ l.d.K L @ [ x m.] n.= @ 4 ] @ @ @ @ @ [ ",
"x & @ @ , @ # = @ # @ @ 3 : @ @ = @ o.p.].].].].].].q.r.>.s.1.1.t.9.0.u.v.w.@ x = @ z w , @ = = @ + & @ @ @ @ @ v @ @ @ $ $ @ c ",
"= @ @ @ @ @ % % @ $ @ % % a @ @ x @ x.y.].].].].].].z.A.B.C.D.t.E.F.j.G.w.w.@ = { @ i ] @ @ @ @ @ [ @ @ @ @ @ @ 4 @ @ @ # # @ c ",
"H.$ 4 4 4 . ( > @ @ > @ @ < , @ , @ y./.I.].].].].J.>.}.|.8.K.L.M.N.O.P.w.w.Q.@ @ @ % R.% + z % %   @ @ @ @ = @ % = @ @ # # @ c ",
"S.w = = ] v ( @ @ @   T.@ 4 , @ = { U.V.W.X.Y.Z.`. +s.|.8.9..+++@+#+$+%+w.w.&+= @ @ m *+= ] = w = < & @ @ @ = @ 8 = @ @ # # @ h ",
"& K = @ $ . 1 y @ + < < @ 4 { @ = = =+4.-+;+-.>+ +6.C.8.9.0.u.,+'+w.w.w.w.w.)+% @ @ # ] r ] @ $ / % { @ @ % @ @ % w @ @ $ $ @ + ",
"] L !+@ $ + b , @ $ $ $ @ c { @ @ @ -+~+V r.{+]+:.:.:.^+/+(+_+:+:+:+:+:+<+[+C @ @ @ 4 @ 0 ] @ # 0 % { @ @ @ @ @ z w @ @ @ @ @ [ ",
"x @ @ @ @ @ % w @ @ @ @ @ + { @ @ @ }+|+`.1+2+:.:.:.:.:.3+4+:+:+:+:+:+:+5+:+6+7+@ @ # = @ @ @ @ @ < x @ @ @ @ @ # w @ @ @ @ @ + ",
"x @ @ @ @ @ % y @ @ @ @ @ + { % @ @ 8+z.5.9+0+:.:.:.:.:.a+:+:+:+:+:+:+:+:+b+c+d+e+$ # = @ @ @ @ @ h { @ @ @ @ @ # w % @ @ @ % + ",
"x @ # a @ @ # , @ @ @ @ @ < = f+& @ # g+1.1.h+:.:.:.:.i+:+:+:+:+:+:+:+j+:+k+c+c+l+m+n+= @ + + @ @ + { @ @ @ @ @ % % o+= @ % p+T.",
"!.@ # a @ @ # , @ @ @ @ @ c [ 4 [ + + % q+r+s+/+t+u+:+:+:+:+:+:+:+:+v+:+w+c+c+c+l+l+x+x+8++ + @ @ + { @ @ @ @ @   4 g 4 + + % Z ",
"x @ _ _ $ @ % ] @ @ @ % % : y+& { { { z+A+B+/+(+_+:+:+:+:+:+:+:+v+:+:+C+c+c+c+l+l+l+x+x+x+D++ $ @ < & @ @ @ T.< E+k & { { { & [ ",
"x @ _   + @ % ] @ @ @ % a a , F+& @ G+H+H+I+J+K+:+5+L+M+M+N+O+:+:+:+P+c+c+c+l+l+l+Q+R+S+T+U+: # @ < & @ @ @ < a # $ f+= @ % @ + ",
"@ @ [ . + @ % ] @ @ $ $ # b < = @ V+H+H+W+W+X+Y+:+:+:+:+:+:+:+Z+`+c+c+c+ @l+l+.@+@@@#@$@%@&@*@# @ < & @ @ % @ + b < , @ $ c.& + ",
", @ < a $ @ % ] @ @ @ @ < 2 + @ =@H+H+W+W+W+-@c+c+c+c+c+c+c+c+c+c+c+c+;@l+l+>@,@+@'@#@$@%@&@)@!@@ < & @ @ @ $ < ; # @ @ @ = @ [ ",
", @ + + $ @ # w @ @ @ @ 3 2 + ~@H+H+{@x+x+x+x+]@^@/@/@/@/@^@l+l+l+l+l+l+(@_@:@,@<@'@#@$@%@&@)@[@3.< x @ @ @ # a ; # @ @ @ @ @ c ",
"@ @ @ @ + @ > y @ + $ + b 1 + H+}@|@x+1@2@3@x+x+x+l+l+l+l+l+l+l+l+4@5@6@7@_@8@9@<@'@#@$@%@&@)@[@0@c x @ 4 % < : ; # @ @ @ @ @ v ",
"@ @ @ @ @ @ 8 y # c.= a (   a@b@|@c@d@e@f@g@h@i@j@k@l@m@n@o@p@q@r@s@t@6@u@v@w@9@<@'@x@$@%@&@)@[@y@z@x % } A@_ ( : % @ @ Y ] @ + ",
", @ @ @ & @ > # $ % < : (   B@C@D@E@d@e@f@g@h@i@j@F@G@H@I@J@K@L@M@N@O@P@Q@v@w@9@R@'@x@$@%@&@)@[@y@S@= % % <   ( : a % @ Y ] @ + ",
"x @ @ @ @ @ 8 u z z z % 8 Z T@C@U@V@d@e@f@g@h@i@j@F@G@H@I@W@X@8 # # '.> Y@Z@w@9@R@'@x@$@%@&@)@[@y@`@ #z z z # g .#$ $ $ & @ @ [ ",
"x @ @ @ @ @ % +#] ] ] ] = @#T@C@##$#d@e@f@g@h@i@j@F@G@%#m n $ w @ w # ] @ @ @ &#R@'@x@$@%@&@)@[@y@`@*#$ = $ w ] > = @ @ @ @ @ + ",
"& =#-#$ r ] % w 6 d.^ q @ ;#T@>#,#$#d@e@f@g@h@i@j@F@'#@ % $ )#$ s = % ] @ @ @ @ !#'@x@$@%@&@)@[@y@`@~#{#= o , @ T.= ] x @ @ @ h ",
"& n.+#$ 0 ] % w ]# #] ] @ ^#T@##U@$#d@e@f@g@h@i@j@/#= @ % = +#@ y @ > > @ @ @ @ @ (#x@$@%@&@)@[@y@`@S@+#@ = @ @ v @ Y & @ @ @ c ",
", @ @ @ @ @ % % @ % # # @ _#####U@$#d@e@f@g@h@i@@ @ @ @ 4 @ @ @ @ @ % % @ @ @ + @ :#(#$@%@&@)@[@y@`@<#@ % # $ @ [ @ Y = @ @ @ c ",
"g + [ [ [ + .#> @ @ a % @ _#####U@$#d@e@f@g@h@[#< c + [ c @ @ @ @ @ # = @ @ @ + @ }#(#$@%@&@)@[@y@`@<#@ # a $ @ % = = = @ @ @ c ",
"|#x , , = .#( # @ + 1 $ @ _#####U@1#d@e@f@g@h@{ = { x = h ] @ @ = = % $ @ @ @ + @ 2#(#3#%@&@)@[@y@`@<#@ _   = @ 4 ] @ @ % % @ [ ",
"x % @ @ @ c ( y @ + b a @ _#####U@1#d@e@f@g@4#$ @ @ # # # , @ @ % @ # & @ @ @ + @ 5#(#(#%@&@)@[@y@`@<#@ . . + @ # w @ @ # # @ + ",
"= c., @ # < : , @ % % % @ _#6###U@1#d@e@f@g@7#8#@ @ r 0 # , @ @ @ @ > y @ @ @ @ @ (#(#(#%@&@)@[@y@`@9#@ + # % @ z w @ @ @ @ @ h ",
", = @ @ @ # % , @ @ @ @ @ 0#T@##U@1#d@e@f@g@7#a#@ @ ] ] # , @ @ @ @ % , @ @ @ @ b#(#(#(#%@c#)@[@y@`@d#@ @ @ @ @ % w @ @ @ @ @ h ",
"x @ @ @ @ @ % y @ @ @ @ @ e#T@f#g#1#d@e@f@g@7#7#h#@ @ @ 8 = @ @ @ @ # & $ $ @ i#(#(#(#(#%@c#)@[@y@`@j#@ @ @ @ @ # w # @ @ @ $ + ",
"x @ @ @ @ @ # , @ @ @ @ @ k#T@l#,#1#d@e@f@g@7#7#m#$ @ @ # , @ @ @ @ # , n#q o#(#(#(#(#p#%@c#)@[@y@`@@ % c 4 @ @ # # q#= @ % c.% ",
", @ @ @ @ @ # , @ @ @ @ @ c r#l#U@1#d@e@f@g@s#7#t#m#u#@ # , @ @ @ @ > i v#w#(#(#(#(#(#$@%@c#)@[@y@x#4 ; _ [ % @ e % @ % % # ] e ",
", @ @ @ @ @ # , @ @ @ % @ c y#l#U@1#d@e@f@g@h@7#7#m#m#m#z#A#C C v#v#B#C#D#(#(#(#(#(#x@$@%@c#)@[@<#+ E#. < $ @ @ F#+#y w , , ] e ",
"x @ @ @ + @ % $ @ @ @ = @ + & l#U@1#d@e@f@g@h@i@7#G#m#m#m#H#H#H#H#H#H#H#H#H#(#(#(#I#x@$@%@c#)@[@J#[ ( _ a % = @ # ] K#] @ $ @ + ",
"= @ @ @ + @ # , @ @ @ = @ + x L#U@1#d@e@f@g@h@i@M#7#m#m#m#N#H#H#H#H#H#H#H#H#O#(#P#'@x@$@%@c#)@Q#@ [ ( _ : a $ @ + + R#] $ n#& + ",
"= @ @ @ % @ % $ @ @ @ @ @ c { @ S#1#d@e@f@g@T#i@j@F@U#m#m#m#H#H#H#H#H#H#H#H#8.9@R@V#x@W#%@c#X#$ @ c 2 # _ 4 + % ; # @ @ @ , @ h ",
"x @ @ @ @ @ # , @ @ @ @ @ c { @ @ Y#d@e@Z#g@T#i@j@F@G@H@m#m#m#`#H#H#H#H# $v@w@9@R@V#x@W#%@c#@ @ @ c . # _ _ + < ; # @ @ @ @ @ c ",
"@ @ @ @ $ @ > y @ # @ @ # + { @ @ @ .$e@Z#g@T#i@j@F@G@H@+$J@K@@$#$$$O@P@%$v@w@9@R@V#x@W#%@@ @ @ @ c { @ # @ % @ ; # @ @ @ @ @ c ",
"@ @ @ @ $ @ 8 y $ n#, % c.% { @ @ @ @ &$Z#g@T#i@j@F@G@H@+$J@K@L@M@N@O@P@%$v@w@9@R@V#x@W#@ @ @ , @ c x % *$= K | 2 # @ @ @ @ @ 4 ",
"= @ @ @ = @ 8 @ @ , @ @ , < { @ @ @ = @ =$-$T#i@j@F@G@H@+$J@K@L@M@N@O@P@%$v@w@9@R@V#;$] @ x @ x = c , @ , @ # c . b # @ , = @ + ",
"x @ @ @ = @ 8 .#v < [ + h   = @ @ @ = @ % y >$i@j@F@G@H@+$J@K@L@M@N@O@P@%$v@w@9@,$@ 8 = @ x @ = { c v v v v _   2 4 .#$ x @ @ [ ",
"x @ @ @ @ @ % 2.{ { & & & [ = @ @ @ $ @ # , @ @ '$)$G@H@+$J@K@L@M@N@O@P@%$v@!$@ @ @ # = = { @ @ , [ y+& ] .   3 4 ] @ @ @ @ @ + ",
"x % @ @ % @ # , K L * n.@ + { @ @ @ $ @ # , # # @ % @ ~${$]$^$/$($_$:$<$@ @ , @ @ @ # = % @ $ # @ + & n#!+a 2 _ # w @ @ @ @ @ + ",
"& q#b.% p+= % y +#d.X = @ c @ @ @ @ @ @ > y K#[$# c.& @ 8 w b.@ & @ > > ] t & @ @ @ z @ }$d.r 0 @ [ x b.$ % < a v @ @ @ = = @ c ",
"x = @ @ = @ # @ @ @ @ @ @ c @ @ @ @ % @ % y ] ] @ = @ @ % ] $ $ @ @ > % w Y @ @ @ @ z = = @ ] ] @ + = @ % @ # a 4 @ = X = t @ c ",
"% # % % % # i % @ @ @ @ @ + = @ @ @ + @ > g # % % % # % c @ @ + < $ # @ @ x @ @ @ @ e % % % % % % : @ @ @ @ % % % ] = = @ & @ c ",
"b., @ ] y , i > @ @ @ & @ [ = @ @ @ + @ > |$w y $ y b 1 c @ $ _ z = % # @ X @ 4 @ @ f +#w $ y %   ( ] @ % v & @ g ] ] ] @ @ @ c ",
"x $ @ @ @ # # , @ @ $ $ @ + { @ @ @ + @ # , $ $ @ @ % ( z = # : a # # , @ @ @ + @ @ # = $ @ @ @ ( ( x @ 4 . + @ # w @ x , $ @ + ",
"& n#, @ $ 1$!., @ @ $ $ @ [ { @ @ @ $ @ # , K | @ @ <   % , # 3 % # % y @ @ @ # @ @ # @ c.= @ % 2 2 x @ . T.+ @ 8 w @ X $ $ @ + ",
"= & @ @ @ & # , @ @ @ @ @ [ { @ @ @ @ @ % # = y @ @ $ + # , @ @ @ @ % y @ @ @ @ @ @ h ] , @ @ @ + < { @ @ @ @ @ 8 w @ @ @ @ @ [ ",
"x @ @ @ @ @ % y @ @ @ @ @ + { @ @ @ @ @ # , @ @ @ @ @ @ 8 = @ @ @ @ # & @ @ @ @ @ @ # = @ @ @ @ @ [ x @ @ @ @ @ # w @ @ @ @ @ + "};
