/* XPM */
static char *d3d49065ce6e4bfd8479fc4fb1512bc7CE5vGnm6RWBGKHmo[] = {
/* columns rows colors chars-per-pixel */
"64 64 134 2 ",
"   c #000000",
".  c #090605",
"X  c #0A0807",
"o  c #150D07",
"O  c #130D0B",
"+  c #18110F",
"@  c #1B1412",
"#  c #22170D",
"$  c #23180E",
"%  c #201711",
"&  c #221A15",
"*  c #2B1E14",
"=  c #261C19",
"-  c #291F1B",
";  c #2D2014",
":  c #2C211D",
">  c #332516",
",  c #382716",
"<  c #3C2A17",
"1  c #33251A",
"2  c #37281D",
"3  c #3B2A1C",
"4  c #2F2420",
"5  c #302521",
"6  c #352921",
"7  c #3C2D23",
"8  c #412F1D",
"9  c #42301F",
"0  c #4A341F",
"q  c #412F21",
"w  c #443223",
"e  c #493625",
"r  c #4D3926",
"t  c #45362A",
"y  c #47382D",
"u  c #513C27",
"i  c #583F27",
"p  c #533D28",
"a  c #433732",
"s  c #473A34",
"d  c #4A3C35",
"f  c #4E3F34",
"g  c #564027",
"h  c #594125",
"j  c #5A4126",
"k  c #574128",
"l  c #54402F",
"z  c #57422F",
"x  c #5B4229",
"c  c #5C432A",
"v  c #5F4529",
"b  c #5A462E",
"n  c #5D482E",
"m  c #4F4138",
"M  c #574230",
"N  c #504137",
"B  c #5E4A32",
"V  c #524339",
"C  c #5B4838",
"Z  c #5D4A3C",
"A  c #60462B",
"S  c #62472A",
"D  c #654A2B",
"F  c #654A2C",
"G  c #664B2D",
"H  c #614D2F",
"J  c #684B2D",
"K  c #694C2C",
"L  c #614932",
"P  c #634B32",
"I  c #634B34",
"U  c #684F35",
"Y  c #634D39",
"T  c #644D39",
"R  c #684F3A",
"E  c #665133",
"W  c #6A5334",
"Q  c #6A5636",
"!  c #66503C",
"~  c #67513C",
"^  c #69503B",
"/  c #69513B",
"(  c #6F5839",
")  c #715635",
"_  c #745837",
"`  c #705938",
"'  c #7A5E3D",
"]  c #7C613D",
"[  c #514742",
"{  c #554944",
"}  c #574D48",
"|  c #584E48",
" . c #5C504A",
".. c #5F514C",
"X. c #604F45",
"o. c #615046",
"O. c #6B5747",
"+. c #60534B",
"@. c #6B5748",
"#. c #6E5B4A",
"$. c #6E5B4C",
"%. c #735E4D",
"&. c #715D4E",
"*. c #7D6242",
"=. c #74604E",
"-. c #7E674C",
";. c #746150",
":. c #6F6663",
">. c #6F6864",
",. c #706765",
"<. c #776B64",
"1. c #796D66",
"2. c #7A6E68",
"3. c #80633E",
"4. c #87693F",
"5. c #866840",
"6. c #866842",
"7. c #896A43",
"8. c #866C4E",
"9. c #8E7247",
"0. c #92754B",
"q. c #9C7C4E",
"w. c #826B54",
"e. c #897157",
"r. c #9C7D51",
"t. c #817167",
"y. c #827268",
"u. c #A3804D",
"i. c #A48354",
"p. c #A48459",
"a. c #97846F",
"s. c #9F8872",
"d. c #A88B67",
"f. c #AB8E68",
/* pixels */
"O : 7 u u u e e r w w r u 7 A | x u r s u + : : u u u u 7 u w 9 e u e v m Z u u y l e x u u u u u 7 G u u u u u e p ..p u e f w ",
"  = 7 u u u e e & & + 6 u 1 p #.x u r T r . @ 4 u u u u 7 3 @ O 6 r w e C ! u u l I 8 x u u u u u 7 G u u u u u 3 e =.p u r ^ 3 ",
"    5 e u u e @ - 5 3 u u ; Q 8 3 e e e $     = 7 u u u = @ 5 : u u 9 H w , e e e 2 > p u u u u u 7 G u u u e u 9 b , w e e w O ",
"    7 r u u w . + 5 w u u 6 6.r x x x x w O   = r u u u O   5 6 u u w 3.p p x x x p w x u u e r u 1 x u u u e u n ) r x x x x 3 ",
"O = r x u u w O + : 5 u u 7 u <.v u y M e & @ 7 G u u u @   : : w p e u | %.u r N p w x u u e e u 7 G u u u A u e r t.x r s x 7 ",
"= 3 J x w u 9   1 6 : 6 w 1 7 p u u M L e 5 * c G w u u   @ w @ w 6 w - u p u r ^ p 7 u u u e e u 1 x u u u u u 8 c x u r T x 7 ",
"D u v u u u 8 O 7 7 + w w @ 7 u u u u u 9 j u A u u u u . : e + 6 e = = u u u u u u < x u u u u u 7 G u u u u u < c u u u u u ; ",
"x u u u u u 8 r r r w 7 e * 7 u u u u u 9 0 u u u u u u > u r w w w 3 = u u u u u u > p u u u u u 1 D u u u u u w c u u r r u ; ",
"u u u u p p 8 j r a x e N > 7 u u u u u w w u u u u k u < x t l r d e = u u u u u u 1 u u u e r u ; D r d p y M e c u u u u u 1 ",
"u u x x x x 8 j r Y x r Y 1 6 r u u v u e e u u v u G u < x M L r T , : w u u v u u 7 u u u u u u ; D r ^ p l L e c u u u u u 7 ",
"D u x x k K 8 , 9 9 9 * O   : o r G u u w c u u D u J x $ 9 9 9 2 @   = # 3 c x u u w x u u x x u ; w 9 w w e w , x u u x k u 2 ",
"D u G x u D 8 0.i j O @ : O r w r x u u w j u A G u x x E ] j > & : @ 3 r w p p u u w x u u u u u ; r.j c c v r ; u u u u u u 3 ",
"D r u u r u e c y M 5 & @ 5 G u u u u u e v r r u r u u e p N w : . 5 A u u u u u u e x r u r r u 7 A s p | x u e c u u r r u 7 ",
"A ,.q.w o.x w j *.6.w 5 - & x u u u v u w j  .d.r { v u 8 p p.r 5 - : r u u u v u u 9 u a.*.d Y u 1 D p.p $.x u 3 p u u u u u 1 ",
"D A u u v u e x u e u u 4 & u u x u J p w j k k u v u u w x r r u 7 : w u x u D x u < c v u x x u 7 A u u u u u * u u u r r u ; ",
"x u u u u u w w u r u w w 5 u u D u A x 9 e u u u u u u 1 u r r r w 4 e u D u x G u > p u u u u u 1 u u u u u u 3 u u u e e u ; ",
"( r 3 3 3 :   9 u u 9 u u 6 v u v u u u 9 E e 9 7 < : O ; u u w e p w p u A u u u u w B w 7 < w w O u u u u x u w x u u e e u ; ",
"4.c x x p *   u u u O q u 3 v u x G u u w 3.x x p x 3   , x u ; 1 r w p u u G x u u n _ x p x c x 6 A u u u x u 8 x u u e e u 2 ",
"A d x u r : . j u 7 6 6 u 3 G u x x w u e v y M u u 3 . 9 x e 5 6 e w v u u A w u u e p N p u r f w G u u w u u w c u u r r u 7 ",
"p Y g u r 7 - v u r r r u ; G u u u u u w e M L u u w - e v r e r r 9 j u u u u u u 3 u ^ p u e ^ w G u u u u u < c u u u u u 1 ",
"D u u u u u w c u u u u u 7 G u u u u u e v u u u u u u w c u u u u e A u u u u u u e x u u u u u 6 D u u u u u e c u u u u u 7 ",
"D u u u u u w j u u u u u 7 G w u u u w e v u u u u u u w x u u u u e v e e u u e r e x u u u u u 2 G u u u u u e c w u u u w 7 ",
"D u e 5 u u e v u u u u u 6 x 1.A u e o.p j u u u u u u e v u u u u w p | =.u u N ^ w x u 7 7 u u 7 G u u u u u w w y.x u w @.q ",
"i u e 5 u u e v u u u u u ; 1 3 1 7 7 w $ 0 u u u u u u e v u u u u 9 # 3 > 7 7 w 3 > p u 7 7 u u 7 G u u u u u O 3 , 3 7 7 w o ",
"D u = = r u w p u u u w w & i.A G G G G w j u u u r u u w x u u r r w q.G A G G G x 8 x w @ 7 r u 6 A u u u q 6 ` 6.A G G G A 1 ",
"D u = O 7 u w p u u u w 5 5 v :.A u r r e v u u u 7 u u q x u u x x e v | $.u u w u e x w @ & e u 6 A u u u 6 5 e r 1.x u w u 7 ",
"u u 1 : 7 u w p u u r r e - 6 x u u N ^ e e u u u 7 u u q x u u u u w v x x u w @.x 7 u r - 5 e u 6 A u u w u 7 - 6 v u r o.A 7 ",
"v u 6 5 r u w p u u u u 6 @ 7 u u u p p w p u u u r u u q x u u u u 9 j u u u u k u 3 x e 6 7 r u 6 A u u u r 6 + e u u u x u 1 ",
"v u 7 7 r u e c u u u u 4 @ 7 u u u u u w u u u u u u u w c u u u u w j u u u r u u 3 x e 7 w r u 6 D u u u e 5 + e u u u u u ; ",
"u u u u 7 u 9 j u 7 r 7 - . 7 u u u u u 9 8 u u u w u u < x e e u w e A u u u r u u ; u u u e e u ; D u 3 w 6 & + e u u u u u * ",
"u u u u u u 8 j e o.x 5   O 6 r u G x u e e u u u u u u < x N ^ r o.k A u u u u u u 7 u u u u u u ; D w #.t =   & w u u K p u 7 ",
"v u u u A u 9 e r w 6 &   O 5 6 u G x u e x u u u v u u > p p p u x w j u u u A u u w x u u x x u ; x w w 6 O   & 5 w u K p u 7 ",
"D u u u u u 8 L < < < w 8 o w u w A u u w j u u u u u u w g 8 8 e e # 9 u u u u u u 8 x u u u u u ; W < < < e , % r r r A u u 1 ",
"D u u u u u w ] p p p p x 6 v u u u u u e v u u u u u u n ) r c u c e p u u u w u u e x u u u u u 6 6.r x r c p 9 x u u u u u 7 ",
"A } ' r N p w c ! *...%.u 6 v u A x u u w c V -.r d x u w r e.r t.x w p u u u u u u w p ;.U y l u 6 A w.x <.v u q x p D u u u 2 ",
"A $.] r ^ p w c U W p p u ; u A J p u u w j Z 8.r Y x u w x ] u j u 9 9 u u u u u u < p w.W M L u 6 G ] u x u u * u K A u u u ; ",
"v u u u u u w w u w e e u 1 u v D u u u w u u u u u u u 3 u u u u u w w u u u 7 u u 3 x u u u u u 6 u u w e r u 1 u K x u u u ; ",
", 7 1 1 1 7 % 9 u u 5 w u 7 A u G u u u 9 % 7 1 6 ; 7 1 ; u u u u u e x u u u 7 u u O 3 3 3 ; 6 6 O u u e 5 r u w x x x u u u ; ",
"u.D v v x %   e u 7 . r u 1 x u u u , u w q.D G x G D x 2 p u u x x w r u u u 7 u u Q 7.D x G r     x u = O x u 3 p u u w w u 1 ",
"D w u u u ;   j u 7 - 5 u 7 G u u u 7 u e v r r u u e e e v u u w u e A u u u 7 u u e c w u u u     D u : : 7 u e c u u e e u 7 ",
"x o.v u e 6 & v u w w w u ; G u u u u u w p N R u u N ^ e v u u u u 9 j u u u u u u w r O.x u w - - G u 7 e w u < c u u u u u 2 ",
"v x u u u e w v u u u u u 6 G u u u u u w p p p u u p p e v u u u u w v u u u u u u q x x u u u e 7 D u u u u u w c u u u u u 2 ",
"D u u u u u w j u u u u u 7 G e u u u e e v u u u u u u 8 x u u u u e A r r u u r u 7 r e r u u u 1 A u u u u u e c e u u u r 7 ",
"D u u u u u e v u u u u u 7 v >.A u r { x v u u 7 r u u e v u u u u e v { %.u u d T = O 5 e u u u 7 u w ; 3 u u e e 2.x u w o.w ",
"v u u u u u e v u u u u u ; w u w w w k > u u u 5 e u u e v u u u u 9 > r e w w u r     : q u u u 7 3 + = 1 w u $ w u w w e p $ ",
"v u u u u u e v u u u w u ; r.j j v v v , u u w & e u u e v u u r r 1 0.v j v v v r     @ 4 u u u 7 X : 6 r u u E ] j c v v p $ ",
"D u u u 7 u w r u u u x u 7 A  .j u r r e v u 7 O : u u 2 p u u r 6 5 c m Z u u r u =   & u u u u 1   = 5 w x u e p +.p u r u 7 ",
"x u u u 7 u e v u u u x u 7 D %.x u d Y e r u 7 O : u u e v u u q e 4 w V ! u w o.x : O 7 A u u u 1   = & 5 r u 7 7 ;.p r { A 7 ",
"x u u u w u w r u u u u u ; G u u u x g w r u r 5 6 u u 3 p u u u e = = u u u u v u 1 3 c G e r u ; @ e = 3 7 w + e u u u v u 2 ",
"D u u u u u e v u u u u u ; G u u u u u w j u 7 5 e u u e c u u u 7 = = u u u u u u < x p p u u u ; : e = = 7 6 + e u u u u u ; ",
"u u u u r u 9 j u e u u e 7 G u u u w u 9 8 u u u 7 u u < x r r e 6 @ = u u u u u u ; u u u u u u ; G u e u w u + e u u u u u ; ",
"u u u u r u 8 j r { v w o.w G u u u u u w w u u u r u u < x s Y 5 &   = u u x x u u 3 u u u u v u ; D w X.x d T @ e u u u u u 3 ",
"x u u u x u 8 u u v u u v 6 G u u u x u e u u u u x u u , x r u : O O : 6 r x J u u w p u D u D x ; v u v u e ; : - e u v x u 7 ",
"D u u u x u 8 % * 6 1 7 2 O x u u u x u w j u u u x u u O * @ @ @ =   = e w c x u u 8 x u D u x G ; * * * * = O @ 3 % r D u u 1 ",
"D u u u u u w r.G G A A A 1 x u u u r u e v u u u u u u ( 6.A G A G w r u u u u u u e x x G u u v 1 i.A p : O 4 3 p u u u u u 7 ",
"D w u u w u e v d Y | $.u 7 G u u u r u e v e e u w u u e r X.e <.x e v u u v u u u e x w u r e u 7 A { g 5 @ = e c u u u u u 7 ",
"A 2.q.w @.x w j ] *.k x u ; u u u u u u 9 j +.f.e o.A u 8 c q.u A u 9 9 p J A u u u < u s.*.N ^ u 1 D q.r w 6 5 * u u u x x u ; ",
"D x u u x u e u u u u u u ; u u u u w u w j p p u x u u w p r r u u 9 w c K u u u u < x x u p p u 7 x u w u e 5 3 u x k x J u ; ",
"w e w w w e > w u u u u u 7 x u u u 7 u 9 , e w w w e w ; u u 7 6 r e u u D u u u u $ w w w w w w & u u u u w w w p x x u A u ; ",
"q.v u p j v > 9 u u u A u 1 x u u u 7 u 9 9.c j r j - . ; u r = < x w e u k u 3 u u H ] c r j w O   p u w * A u , p p p u u u ; ",
"D r u u u e e v u u r r u 7 G u u u 7 u e v r r u u w   < x e & 5 e e v u u u 7 u u e x r u u u     D u 3 : 7 u e c u D v r u 7 ",
"A { v u r [ i v u u r r u 1 G u u u r u e v d T u u 6 O w v e 4 w e w j u u u e u u e u o.x u w @ @ D u : q 7 u 8 c u k r r u 7 ",
"x A u u u A e v u u u u u 1 G u u u u u w e x j u u r 7 e v u u u u w j u u u u u u 2 p v u u u 7 6 G u u u u u 8 c u u u u u 1 ",
"D u u u u u w j u u u u u 7 G u u u u u e v u u u u u u 8 x u u u u e A u u u u u u e x u u u u u 1 D u u u u u e c u u u u u 7 "
};
