/* XPM */
static char * wood_popo_xpm[] = {
"64 64 577 2",
"  	c #130D0B",
". 	c #2C211D",
"+ 	c #3C2D23",
"@ 	c #513C27",
"# 	c #493625",
"$ 	c #4D3926",
"% 	c #443223",
"& 	c #60462B",
"* 	c #584E48",
"= 	c #5B4229",
"- 	c #473A34",
"; 	c #18110F",
"> 	c #42301F",
", 	c #5F4529",
"' 	c #4F4138",
") 	c #5D4A3C",
"! 	c #47382D",
"~ 	c #54402F",
"{ 	c #664B2D",
"] 	c #533D28",
"^ 	c #5F514C",
"/ 	c #4E3F34",
"( 	c #000000",
"_ 	c #261C19",
": 	c #221A15",
"< 	c #352921",
"[ 	c #33251A",
"} 	c #6E5B4A",
"| 	c #644D39",
"1 	c #090605",
"2 	c #1B1412",
"3 	c #2F2420",
"4 	c #3B2A1C",
"5 	c #5B4838",
"6 	c #66503C",
"7 	c #634B34",
"8 	c #412F1D",
"9 	c #74604E",
"0 	c #69503B",
"a 	c #302521",
"b 	c #291F1B",
"c 	c #2D2014",
"d 	c #6A5636",
"e 	c #23180E",
"f 	c #614D2F",
"g 	c #382716",
"h 	c #37281D",
"i 	c #332516",
"j 	c #5A462E",
"k 	c #866842",
"l 	c #80633E",
"m 	c #5D482E",
"n 	c #715635",
"o 	c #776B64",
"p 	c #574230",
"q 	c #735E4D",
"r 	c #504137",
"s 	c #817167",
"t 	c #684B2D",
"u 	c #614932",
"v 	c #2B1E14",
"w 	c #5C432A",
"x 	c #654A2B",
"y 	c #5A4126",
"z 	c #3C2A17",
"A 	c #4A341F",
"B 	c #433732",
"C 	c #574128",
"D 	c #45362A",
"E 	c #4A3C35",
"F 	c #634D39",
"G 	c #694C2C",
"H 	c #150D07",
"I 	c #22170D",
"J 	c #92754B",
"K 	c #583F27",
"L 	c #665133",
"M 	c #7C613D",
"N 	c #9C7D51",
"O 	c #706765",
"P 	c #9C7C4E",
"Q 	c #615046",
"R 	c #7D6242",
"S 	c #5C504A",
"T 	c #A88B67",
"U 	c #554944",
"V 	c #4D3B2B",
"W 	c #8A7050",
"X 	c #493C32",
"Y 	c #373130",
"Z 	c #322E2C",
"` 	c #312A28",
" .	c #4F3C2B",
"..	c #97846F",
"+.	c #A48459",
"@.	c #6E5B4C",
"#.	c #4F3C28",
"$.	c #766044",
"%.	c #AE8542",
"&.	c #BB8E44",
"*.	c #C99746",
"=.	c #B88B43",
"-.	c #735A31",
";.	c #59534F",
">.	c #4C3927",
",.	c #503C27",
"'.	c #79613D",
").	c #DDA549",
"!.	c #E4AA4A",
"~.	c #C29245",
"{.	c #92713C",
"].	c #866938",
"^.	c #553E23",
"/.	c #6F5839",
"(.	c #221916",
"_.	c #846634",
":.	c #E4AA49",
"<.	c #64420D",
"[.	c #5E4A32",
"}.	c #87693F",
"|.	c #412F21",
"1.	c #37271A",
"2.	c #7C5414",
"3.	c #D8A045",
"4.	c #876733",
"5.	c #9E7738",
"6.	c #E09C2C",
"7.	c #422A09",
"8.	c #745837",
"9.	c #38281A",
"0.	c #352001",
"a.	c #5C3901",
"b.	c #765216",
"c.	c #7D5C23",
"d.	c #805F27",
"e.	c #E2A53F",
"f.	c #E2A43D",
"g.	c #E19F33",
"h.	c #BD811D",
"i.	c #694202",
"j.	c #362615",
"k.	c #594127",
"l.	c #564027",
"m.	c #4C3824",
"n.	c #534231",
"o.	c #6F5D43",
"p.	c #8A5702",
"q.	c #6A4302",
"r.	c #533401",
"s.	c #774B01",
"t.	c #7E6A50",
"u.	c #5F4E39",
"v.	c #493623",
"w.	c #372819",
"x.	c #826D4F",
"y.	c #967E5C",
"z.	c #774B02",
"A.	c #6B4402",
"B.	c #674101",
"C.	c #957C5A",
"D.	c #947C5C",
"E.	c #342617",
"F.	c #4D3925",
"G.	c #4B3724",
"H.	c #4A3723",
"I.	c #52473E",
"J.	c #32251D",
"K.	c #654A2D",
"L.	c #43311F",
"M.	c #654C28",
"N.	c #564023",
"O.	c #A48962",
"P.	c #7C4E02",
"Q.	c #836331",
"R.	c #9A805C",
"S.	c #69593D",
"T.	c #46341F",
"U.	c #4C3825",
"V.	c #473421",
"W.	c #817562",
"X.	c #AC9C83",
"Y.	c #8D724B",
"Z.	c #E9E3DC",
"`.	c #CEC9C2",
" +	c #766F6B",
".+	c #483524",
"++	c #523B22",
"@+	c #786D5B",
"#+	c #E4DED7",
"$+	c #655A52",
"%+	c #4A3720",
"&+	c #7C5D30",
"*+	c #785A2F",
"=+	c #908464",
"-+	c #98805D",
";+	c #A07F4E",
">+	c #A7844F",
",+	c #97702A",
"'+	c #7C520B",
")+	c #7C591D",
"!+	c #9C7D4F",
"~+	c #997B4E",
"{+	c #A18965",
"]+	c #B19B75",
"^+	c #5B4424",
"/+	c #7C5F38",
"(+	c #694F2F",
"_+	c #3B2B1E",
":+	c #3B2C22",
"<+	c #4F3B20",
"[+	c #D7CEC3",
"}+	c #D7D1CB",
"|+	c #3A2A1D",
"1+	c #827268",
"2+	c #6B5748",
"3+	c #413326",
"4+	c #A89980",
"5+	c #957B58",
"6+	c #B9A892",
"7+	c #E3DCD3",
"8+	c #6F604A",
"9+	c #382A21",
"0+	c #513C1E",
"a+	c #6D522D",
"b+	c #5B4426",
"c+	c #79694F",
"d+	c #9F8457",
"e+	c #A1804F",
"f+	c #9C8962",
"g+	c #8A8162",
"h+	c #3F2F1D",
"i+	c #644B2B",
"j+	c #785B2F",
"k+	c #76592C",
"l+	c #715429",
"m+	c #463321",
"n+	c #5A4324",
"o+	c #9A8668",
"p+	c #907753",
"q+	c #7A6037",
"r+	c #312212",
"s+	c #A9987E",
"t+	c #72562A",
"u+	c #9F7C48",
"v+	c #856738",
"w+	c #684D28",
"x+	c #5C4428",
"y+	c #48351E",
"z+	c #7F5F30",
"A+	c #7B5C30",
"B+	c #6B512C",
"C+	c #7A613E",
"D+	c #79694C",
"E+	c #564422",
"F+	c #79663D",
"G+	c #897757",
"H+	c #9C8965",
"I+	c #8C7C5C",
"J+	c #776448",
"K+	c #6E563A",
"L+	c #2C322B",
"M+	c #5F4E32",
"N+	c #624929",
"O+	c #664C25",
"P+	c #70532C",
"Q+	c #7D6B55",
"R+	c #76592F",
"S+	c #75582E",
"T+	c #7E7260",
"U+	c #695D4C",
"V+	c #4B3820",
"W+	c #664B27",
"X+	c #876838",
"Y+	c #906E3D",
"Z+	c #7C5E31",
"`+	c #95805E",
" @	c #7B6F5D",
".@	c #433220",
"+@	c #39291C",
"@@	c #33271B",
"#@	c #624927",
"$@	c #806031",
"%@	c #816032",
"&@	c #8D7960",
"*@	c #473423",
"=@	c #7A5C30",
"-@	c #97A298",
";@	c #96B1AE",
">@	c #7C8E8C",
",@	c #726239",
"'@	c #6E572B",
")@	c #735A2B",
"!@	c #7A5E2B",
"~@	c #665733",
"{@	c #5B7774",
"]@	c #617F7C",
"^@	c #586255",
"/@	c #564125",
"(@	c #5E4725",
"_@	c #684E28",
":@	c #56442D",
"<@	c #A68F71",
"[@	c #846A44",
"}@	c #654C29",
"|@	c #563E26",
"1@	c #35291B",
"2@	c #533C25",
"3@	c #43321F",
"4@	c #2D231A",
"5@	c #8F754F",
"6@	c #6E5331",
"7@	c #6F7563",
"8@	c #92ACA9",
"9@	c #526B68",
"0@	c #506966",
"a@	c #709490",
"b@	c #4C3923",
"c@	c #634A27",
"d@	c #89765D",
"e@	c #523D21",
"f@	c #6A5D48",
"g@	c #463627",
"h@	c #40301E",
"i@	c #574023",
"j@	c #473522",
"k@	c #635038",
"l@	c #739793",
"m@	c #98B2AE",
"n@	c #9BB4B0",
"o@	c #9AB4B0",
"p@	c #6E8782",
"q@	c #63807D",
"r@	c #5F685B",
"s@	c #624A27",
"t@	c #4D3E2E",
"u@	c #645A4B",
"v@	c #503C22",
"w@	c #4F3A26",
"x@	c #74634F",
"y@	c #A1B8B3",
"z@	c #67837F",
"A@	c #5D6455",
"B@	c #5F4826",
"C@	c #4A381E",
"D@	c #553F1E",
"E@	c #443220",
"F@	c #785A2D",
"G@	c #634925",
"H@	c #4E3B20",
"I@	c #98B2AF",
"J@	c #76582E",
"K@	c #453323",
"L@	c #1B1410",
"M@	c #715529",
"N@	c #4E3A25",
"O@	c #42311E",
"P@	c #74572E",
"Q@	c #7F5F31",
"R@	c #6C694E",
"S@	c #84A4A0",
"T@	c #74826D",
"U@	c #8E885B",
"V@	c #5B5138",
"W@	c #211815",
"X@	c #59421E",
"Y@	c #604726",
"Z@	c #3D2D1D",
"`@	c #836233",
" #	c #5F7062",
".#	c #93AFAC",
"+#	c #AA8C30",
"@#	c #E6DDC1",
"##	c #9B780C",
"$#	c #A5AB93",
"%#	c #DACEA5",
"&#	c #637F79",
"*#	c #505E53",
"=#	c #523C21",
"-#	c #433223",
";#	c #2C221A",
">#	c #5E4521",
",#	c #6F5427",
"'#	c #6A4F2A",
")#	c #402F21",
"!#	c #513C1F",
"~#	c #816235",
"{#	c #76592B",
"]#	c #543E1E",
"^#	c #38291C",
"/#	c #8DAAA7",
"(#	c #96ADA3",
"_#	c #C8B478",
":#	c #BEA760",
"<#	c #E3D9BA",
"[#	c #928C5F",
"}#	c #526258",
"|#	c #322514",
"1#	c #564328",
"2#	c #3B2B16",
"3#	c #614823",
"4#	c #76582B",
"5#	c #684D25",
"6#	c #453322",
"7#	c #654D2C",
"8#	c #6E512A",
"9#	c #523E22",
"0#	c #604725",
"a#	c #513D21",
"b#	c #667669",
"c#	c #A07F18",
"d#	c #B49A48",
"e#	c #8E7B24",
"f#	c #DED3AF",
"g#	c #657E75",
"h#	c #674D29",
"i#	c #7F5F32",
"j#	c #3F2D1D",
"k#	c #574D48",
"l#	c #7A5E3D",
"m#	c #53412F",
"n#	c #89683C",
"o#	c #806443",
"p#	c #886A43",
"q#	c #879489",
"r#	c #CDBB84",
"s#	c #B1620C",
"t#	c #AF933C",
"u#	c #D2C290",
"v#	c #AA6609",
"w#	c #AA7A1D",
"x#	c #979064",
"y#	c #795C33",
"z#	c #795B32",
"A#	c #8E7048",
"B#	c #675644",
"C#	c #503A22",
"D#	c #684F35",
"E#	c #695234",
"F#	c #5C4421",
"G#	c #553F22",
"H#	c #6D7049",
"I#	c #E1D6B4",
"J#	c #FF3333",
"K#	c #FF7676",
"L#	c #C48545",
"M#	c #516054",
"N#	c #7E5F34",
"O#	c #31261E",
"P#	c #5E4529",
"Q#	c #735A38",
"R#	c #533C22",
"S#	c #897118",
"T#	c #FF7D7D",
"U#	c #FF9F9F",
"V#	c #526155",
"W#	c #70542B",
"X#	c #201711",
"Y#	c #563F25",
"Z#	c #DE906D",
"`#	c #73572A",
" $	c #584223",
".$	c #A3804D",
"+$	c #777037",
"@$	c #DCCFA8",
"#$	c #49371F",
"$$	c #624826",
"%$	c #666F5B",
"&$	c #9D7409",
"*$	c #B9A054",
"=$	c #E3DABB",
"-$	c #AFA67B",
";$	c #666A54",
">$	c #49361F",
",$	c #C3AE6C",
"'$	c #F8362F",
")$	c #AC8227",
"!$	c #797D5E",
"~$	c #76572D",
"{$	c #827124",
"]$	c #B75E0F",
"^$	c #6A6950",
"/$	c #BBAF82",
"($	c #E0D7BA",
"_$	c #A46A06",
":$	c #DDD1AC",
"<$	c #77592E",
"[$	c #4D3824",
"}$	c #6F6864",
"|$	c #493624",
"1$	c #745A3B",
"2$	c #AFA781",
"3$	c #D0C7A7",
"4$	c #B4AB80",
"5$	c #A1996D",
"6$	c #465145",
"7$	c #4C5A4F",
"8$	c #74582E",
"9$	c #7A6E68",
"0$	c #4F3A24",
"a$	c #75582B",
"b$	c #626E5E",
"c$	c #737E66",
"d$	c #7E805D",
"e$	c #7B7955",
"f$	c #7C7C59",
"g$	c #6F7860",
"h$	c #5F7063",
"i$	c #424E44",
"j$	c #3F473B",
"k$	c #413116",
"l$	c #221912",
"m$	c #36271A",
"n$	c #3C2C15",
"o$	c #656C57",
"p$	c #5D6D60",
"q$	c #475850",
"r$	c #495D57",
"s$	c #45544C",
"t$	c #464637",
"u$	c #322410",
"v$	c #150F0E",
"w$	c #271D1A",
"x$	c #0A0807",
"y$	c #4E3921",
"z$	c #6C5E39",
"A$	c #44534A",
"B$	c #4E4026",
"C$	c #332515",
"D$	c #60534B",
"E$	c #6D512B",
"F$	c #705428",
"G$	c #73572D",
"H$	c #656E5B",
"I$	c #474B3C",
"J$	c #4D391F",
"K$	c #574430",
"L$	c #3D2C19",
"M$	c #241A17",
"N$	c #0E0908",
"O$	c #32251C",
"P$	c #513A23",
"Q$	c #746150",
"R$	c #45341D",
"S$	c #494735",
"T$	c #4E432C",
"U$	c #47351D",
"V$	c #432F1A",
"W$	c #2A1E14",
"X$	c #312216",
"Y$	c #4D3822",
"Z$	c #3D2D1E",
"`$	c #402F1F",
" %	c #402F20",
".%	c #4D3920",
"+%	c #4E3A20",
"@%	c #4A381F",
"#%	c #45341C",
"$%	c #41301A",
"%%	c #382919",
"&%	c #322212",
"*%	c #4C3721",
"=%	c #463320",
"-%	c #291C0D",
";%	c #3C2C19",
">%	c #392A18",
",%	c #382917",
"'%	c #322516",
")%	c #241B0F",
"!%	c #1C1410",
"~%	c #3F2E1D",
"{%	c #251A0F",
"]%	c #604F45",
"^%	c #A48354",
"/%	c #AB8E68",
"(%	c #9F8872",
"_%	c #8E7247",
":%	c #514742",
"  . + @ @ @ # # $ % % $ @ + & * = @ $ - @ ; . . @ @ @ @ + @ % > # @ # , ' ) @ @ ! ~ # = @ @ @ @ @ + { @ @ @ @ @ # ] ^ ] @ # / % ",
"( _ + @ @ @ # # : : ; < @ [ ] } = @ $ | $ 1 2 3 @ @ @ @ + 4 2   < $ % # 5 6 @ @ ~ 7 8 = @ @ @ @ @ + { @ @ @ @ @ 4 # 9 ] @ $ 0 4 ",
"( ( a # @ @ # 2 b a 4 @ @ c d 8 4 # # # e ( ( _ + @ @ @ _ 2 a . @ @ > f % g # # # h i ] @ @ @ @ @ + { @ @ @ # @ > j g % # # %   ",
"( ( + $ @ @ % 1 ; a % @ @ < k $ = = = = %   ( _ $ @ @ @   ( a < @ @ % l ] ] = = = ] % = @ @ # $ @ [ = @ @ @ # @ m n $ = = = = 4 ",
"  _ $ = @ @ %   ; . a @ @ + @ o , @ ! p # : 2 + { @ @ @ 2 ( . . % ] # @ * q @ $ r ] % = @ @ # # @ + { @ @ @ & @ # $ s = $ - = + ",
"_ 4 t = % @ > ( [ < . < % [ + ] @ @ p u # a v w { % @ @ ( 2 % 2 % < % b @ ] @ $ 0 ] + @ @ @ # # @ [ = @ @ @ @ @ 8 w = @ $ | = + ",
"x @ , @ @ @ 8   + + ; % % 2 + @ @ @ @ @ > y @ & @ @ @ @ 1 . # ; < # _ _ @ @ @ @ @ @ z = @ @ @ @ @ + { @ @ @ @ @ z w @ @ @ @ @ c ",
"= @ @ @ @ @ 8 $ $ $ % + # v + @ @ @ @ @ > A @ @ @ @ @ @ i @ $ % % % 4 _ @ @ @ @ @ @ i ] @ @ @ @ @ [ x @ @ @ @ @ % w @ @ $ $ @ c ",
"@ @ @ @ ] ] 8 y $ B = # r i + @ @ @ @ @ % % @ @ @ @ C @ z = D ~ $ E # _ @ @ @ @ @ @ [ @ @ @ # $ @ c x $ E ] ! p # w @ @ @ @ @ [ ",
"@ @ = = = = 8 y $ F = $ F [ < $ @ @ , @ # # @ @ , @ { @ z = p u $ | g . % @ @ , @ @ + @ @ @ @ @ @ c x $ 0 ] ~ u # w @ @ @ @ @ + ",
"x @ = = C G 8 g > > > v   ( . H $ { @ @ % w @ @ x @ t = e > > > h 2 ( _ I 4 w = @ @ % = @ @ = = @ c % > % % # % g = @ @ = C @ h ",
"x @ { = @ x 8 J K y   2 .   $ % $ = @ @ % y @ & { @ = = L M y i : . 2 4 $ % ] ] @ @ % = @ @ @ @ @ c N y w w , $ c @ @ @ @ @ @ 4 ",
"x $ @ @ $ @ # w ! p a : 2 a { @ @ @ @ @ # , $ $ @ $ @ @ # ] r % . 1 a & @ @ @ @ @ @ # = $ @ $ $ @ + & - ] * = @ # w @ @ $ $ @ + ",
"& O P % Q = % y R k % a b : = @ @ @ , @ % y S T $ U , @ 8 V W X Y Z `  .@ @ @ , @ @ > @ ..R E F @ [ x +.] @.= @ 4 ] @ @ @ @ @ [ ",
"x & @ @ , @ # = @ # @ @ 3 : @ @ = @ t ] % y C C @ , @ #.$.%.&.*.*.=.-.;.>.= @ x = @ z w , @ = = @ + & @ @ @ @ @ v @ @ @ $ $ @ c ",
"= @ @ @ @ @ % % @ $ @ % % a @ @ x @ & = > # @ @ @ @ ,.'.).!.!.!.!.!.~.{.].^.@ = { @ i ] @ @ @ @ @ [ @ @ @ @ @ @ 4 @ @ @ # # @ c ",
"/.$ 4 4 4 . ( > @ @ > @ @ < , @ , @ @ @ > L # > + z (._.!.!.!.!.!.!.!.!.:.<.@ @ @ @ % [.% + z % %   @ @ @ @ = @ % = @ @ # # @ c ",
"}.w = = ] v ( @ @ @   |.@ 4 , @ = { @ @ % l = = ] = 1.2.3.4.4.5.!.!.!.!.6.7.{ = @ @ m 8.= ] = w = < & @ @ @ = @ 8 = @ @ # # @ h ",
"& E = @ $ . 1 y @ + < < @ 4 { @ = = % @ # , ! p @ @ 9.0.a.b.c.d.e.f.g.h.i.j.k.% @ @ # ] r ] @ $ / % { @ @ % @ @ % w @ @ $ $ @ + ",
"] F l.@ $ + b , @ $ $ $ @ c { @ @ @ @ @ % # p u @ m.n.o.p.q.q.r.r.q.q.q.s.t.u.v.@ @ 4 @ 0 ] @ # 0 % { @ @ @ @ @ z w @ @ @ @ @ [ ",
"x @ @ @ @ @ % w @ @ @ @ @ + { @ @ @ @ @ # , @ @ @ w.x.y.p.p.z.z.z.q.q.A.B.C.D.E.@ @ # = @ @ @ @ @ < x F.G.G.@ @ # w @ @ @ @ @ + ",
"x @ @ @ @ @ % y @ H.I.I.I.J.K.% @ @ @ % # , @ L.M.N.O.y.p.p.P.z.z.q.q.z.Q.R.O.S.T.U.# = @ @ @ @ V.W.X.X.Y.Z.`. +.+w % @ @ @ % + ",
"x @ # a @ @ # ++@+X.Z.Z.Z.Z.#+$+& @ # Q ] y %+&+&+*+=+-+;+>+,+'+z.q.)+!+~+{+]+^+/+(+_+= @ + :+<+&+X.X.X.&+&+&+[+}+|+1+= @ % 2+|.",
"K @ # a @ @ 3+4+X.X.X.5+6+7+Z.X.8+9++ % e 0+&+&+&+a+b+c+d+>+>+e+e+!+!+!+f+g+h+i+j+k+l+m+@ 9+n+&+&+o+X.X.p+&+&+&+q+Z.r+4 + + % H ",
"x @ _ _ $ L.j+X.X.X.X.s+j+t+u+X.v+w+x+{ y+z+&+A+a+B+C+D+E+F+G+H+H+I+J+K+L+M+N+N+N+M.O+P+% Q+R+A+&+S+X.T+U+V+W+S+X+Y+T+{ { { & [ ",
"x @ _   + M.j+Z+`+ @.@+@@@#@$@X.%@&+&@*@=@$@A+a+-@;@;@;@>@,@'@)@!@)@'@~@{@]@]@]@^@/@(@_@:@<@[@=@&+}@|@@ @ @ < 1@=@X.X.2@@ % @ + ",
"@ @ [ . J.&+j+Z+3@@ $ $ # b 4@X.&+5@<@6@=@=@7@;@;@;@;@;@;@8@9@0@0@0@0@a@]@]@]@]@]@]@b@c@S+d@<@=@e@< & @ @ % @ + f@X.X.g@$ Q & + ",
", @ < a h@&+j+i@@ @ @ @ < 2 + j@*+<@k@Z+j+l@;@;@m@n@o@;@;@;@l@l@l@l@l@l@]@]@p@p@p@q@]@r@s@n+<@t@@ < & @ @ @ $ < u@=@&+3@@ = @ [ ",
", @ + + h@&+=@v@@ @ @ @ 3 2 + @ w@x@&+&+l@;@;@y@y@y@y@y@;@;@l@l@l@l@l@l@]@z@p@p@p@p@]@]@A@B@C@$ @ < x @ @ @ # a D@=@&+E@@ @ @ c ",
"@ @ @ @ J.&+F@G@@ + $ + b 1 + @ @ H@&+&+l@;@I@y@y@y@y@y@;@;@l@l@l@l@l@l@]@]@p@p@p@p@]@]@]@M.J@K@@ c x @ 4 % < L@M@=@&+G.@ @ @ v ",
"@ @ @ @ N@&+F@z+O@Q = a (   < $ @ P@Q@R@S@;@n@y@y@y@y@y@n@;@l@l@l@l@l@l@]@]@]@]@T@U@]@]@]@V@&+L.@ c x % } D W@X@t+j+Y@@ G ] @ + ",
", @ @ @ & %+F@=@A+Z@< : (   a < v.`@Q@ #.#;@;@+#@#@###y@;@;@l@l@l@l@l@l@$#%#%#%#%#U@&#]@]@*#Q@=#@ c = % -#;#>#,#t+'#)#@ G ] @ + ",
"x @ @ @ @ @ !#~#{#{#]#|+8 H % @ ^#%@&+ #/#;@(#@#@#@#@#_#;@/#:#@#@#<#%#%#%#%#%#%#%#[#U@]@}#*#&+^+<+|#1#2#3#{#=@4#5#6#$ $ & @ @ [ ",
"x @ @ @ @ @ % 7#Z+Z+Z+Z+8#9#0#^+a#&+&+ #b#;@c#@#@#@#@#@#d#e#@#@#@#@#f#%#%#%#%#%#%#%#U@g#*#*#&+h#&+S+Y+A+Q@A+i#i@j#= @ @ @ @ @ + ",
"& k#l#$ r ] % w m#n#o#p#&+S+$@&+i@Q@&+ # #q#@#@#@#@#@#@#@#r#s#t#@#u#v#w#%#%#%#%#%#%#x#U@*#*#y#z#*+S+%@A#Q@B#C#@ |.= ] x @ @ @ h ",
"& @.M $ 0 ] % w D#E#E@e@M.F#Y@G#N.Z+&+ # #H#@#@#@#@#@#@#I#J#J#J#v#J#J#K#L#%#%#%#%#%#%#U@*#M#N#~#@ O#P#Q#,.= @ @ v @ G & @ @ @ c ",
", @ @ @ @ @ % % @ % # # @ [ @ , R#&+&+ # #S#@#@#@#@#@#@#:#T#J#J#J#J#J#J#U#%#%#%#%#%#%#U@V# #&+W#@ < @ @ % # $ @ [ @ G = @ @ @ c ",
"g + [ [ [ + X#> @ @ a % @ + & @ Y#&+&+ # #S#@#@#@#@#@#@#@#Z#J#J#J#J#J#J#c#%#%#%#%#%#%#U@ # #`# $<   @ @ # a $ @ % = = = @ @ @ c ",
".$x , , = X#( # @ + 1 $ @ [ = @ m.&+4# # #+$@#@#@#@#@#@#@#@$J#J#J#J#J#J#@#%#%#%#%#%#%#U@ # #`@#$( ( = @ _   = @ 4 ] @ @ % % @ [ ",
"x % @ @ @ c ( y @ + b a @ + { @ @ $$R+%$ # #@#@#@#@#@#@#@#@#&$J#J#J#J#*$=$%#%#%#%#%#-$U@ #;$&+E@( ( x @ . . + @ # w @ @ # # @ + ",
"= Q , @ # < : , @ % % % @ c { @ @ >$&+&+ # #,$@#@#@#@#@#@#@#@#'$J#J#)$@#%#%#%#%#%#%#U@!$ #Q@~$-#b b { @ + # % @ z w @ @ @ @ @ h ",
", = @ @ @ # % , @ @ @ @ @ < { @ @ G.&+&+ # #{$@#@#@#@#@#@#@#@#,$J#]$@#@#%#%#%#%#%#%#U@ # #&+V+@ # + x @ @ @ @ @ % w @ @ @ @ @ h ",
"x @ @ @ @ @ % y @ @ @ @ @ + { # @ @ H@=@^$ # #/$($@#@#@#@#@#@#@#_$@#@#:$%#%#%#%#%#x#U@ #=@<$[$@ @ [ & @ @ @ @ @ # w # @ @ @ $ + ",
"x @ @ @ @ @ # , @ @ @ @ @ + , }$& @ |$1$Q@ # #U@U@U@U@U@2$3$3$3$3$3$4$5$U@U@U@U@U@U@6$7$8$h@@ @ @ + @ % c 4 @ @ # # 9$= @ % Q % ",
", @ @ @ @ @ # , @ @ @ @ @ c % @ % % % 0$a$&+b$ # # # # #c$d$d$d$e$f$g$h$i$i$i$i$i$i$j$k$l$m$@ @ @ + 4 ; _ [ % @ e % @ % % # ] e ",
", @ @ @ @ @ # , @ @ @ % @ c N y y , , , n$&+&+o$ # # #p$q$0@0@r$i$i$0@s$i$i$i$i$i$t$k$u$v$w$E@@ @ + x$. < $ @ @ L M y w , , ] e ",
"x @ @ @ + @ % $ @ @ @ = @ + & S y @ $ $ # y$&+R+z$ # #i$i$i$i$i$A$0@i$i$i$i$i$i$B$a#C$( L@E@E@E@@ [ ( _ a % = @ # ] D$] @ $ @ + ",
"= @ @ @ + @ # , @ @ @ = @ + x q = @ E F # $ L.E$F$G$H$i$i$i$i$i$i$i$i$i$i$i$I$J$K$L$M$N$O$P$E@E@@ [ ( _ : a $ @ + + Q$] $ U & + ",
"= @ @ @ % @ % $ @ @ @ @ @ c { @ @ @ = l.% $ @ |$R$S+&+a#S$i$i$i$i$i$i$i$T$a#a#U$V$E@W$X$Y$Y#Z$`$@ c 2 # _ 4 + % ; # @ @ @ , @ h ",
"x @ @ @ @ @ # , @ @ @ @ @ c { @ @ @ @ @ % y @ + a  %.%+%H@G#a#a#a#@%#%#%a#$%%%E@E@E@&%*%=%=%E@m.@ c . # _ _ + < ; # @ @ @ @ @ c ",
"@ @ @ @ $ @ > y @ # @ @ # + { @ @ @ % @ > 8 @ @ @ + @ @ -%;%>%>%,%'%)%!%~%E@E@E@E@E@{%E@E@E@v.@ @ c { @ # @ % @ ; # @ @ @ @ @ c ",
"@ @ @ @ $ @ 8 y $ U , % Q % { @ @ @ @ @ % % @ @ @ $ @ @ z = - F a : ( _ @ @ = = @ @ 4 @ @ @ @ , @ c x % ]%= E | 2 # @ @ @ @ @ 4 ",
"= @ @ @ = @ 8 @ @ , @ @ , < { @ @ @ = @ # @ @ @ @ = @ @ g = $ @ .     . < $ = t @ @ % ] @ x @ x = c , @ , @ # c . b # @ , = @ + ",
"x @ @ @ = @ 8 X#v < [ + h   = @ @ @ = @ % y @ @ @ = @ @   v 2 2 2 _ ( _ # % w = @ @ 8 = @ x @ = { c v v v v _   2 4 X#$ x @ @ [ ",
"x @ @ @ @ @ % N { { & & & [ = @ @ @ $ @ # , @ @ @ @ @ @ /.k & { & { % $ @ @ @ @ @ @ # = = { @ @ , [ ^%& ] .   3 4 ] @ @ @ @ @ + ",
"x % @ @ % @ # , E F * @.@ + { @ @ @ $ @ # , # # @ % @ @ # $ ]%# o = # , @ @ , @ @ @ # = % @ $ # @ + & U l.a 2 _ # w @ @ @ @ @ + ",
"& 9$P % 2+= % y M R C = @ c @ @ @ @ @ @ > y D$/%# Q & @ 8 w P @ & @ > > ] t & @ @ @ z @ (%R r 0 @ [ x P $ % < a v @ @ @ = = @ c ",
"x = @ @ = @ # @ @ @ @ @ @ c @ @ @ @ % @ % y ] ] @ = @ @ % ] $ $ @ @ > % w G @ @ @ @ z = = @ ] ] @ + = @ % @ # a 4 @ = C = t @ c ",
"% # % % % # i % @ @ @ @ @ + = @ @ @ + @ > g # % % % # % c @ @ + < $ # @ @ x @ @ @ @ e % % % % % % : @ @ @ @ % % % ] = = @ & @ c ",
"P , @ ] y , i > @ @ @ & @ [ = @ @ @ + @ > _%w y $ y b 1 c @ $ _ z = % # @ C @ 4 @ @ f M w $ y %   ( ] @ % v & @ g ] ] ] @ @ @ c ",
"x $ @ @ @ # # , @ @ $ $ @ + { @ @ @ + @ # , $ $ @ @ % ( z = # : a # # , @ @ @ + @ @ # = $ @ @ @ ( ( x @ 4 . + @ # w @ x , $ @ + ",
"& U , @ $ :%K , @ @ $ $ @ [ { @ @ @ $ @ # , E | @ @ <   % , # 3 % # % y @ @ @ # @ @ # @ Q = @ % 2 2 x @ . |.+ @ 8 w @ C $ $ @ + ",
"= & @ @ @ & # , @ @ @ @ @ [ { @ @ @ @ @ % # = y @ @ $ + # , @ @ @ @ % y @ @ @ @ @ @ h ] , @ @ @ + < { @ @ @ @ @ 8 w @ @ @ @ @ [ ",
"x @ @ @ @ @ % y @ @ @ @ @ + { @ @ @ @ @ # , @ @ @ @ @ @ 8 = @ @ @ @ # & @ @ @ @ @ @ # = @ @ @ @ @ [ x @ @ @ @ @ # w @ @ @ @ @ + "};
