/* XPM */
static char * wood_glove_xpm[] = {
"64 64 286 2",
"  	c #130D0B",
". 	c #2C211D",
"+ 	c #3C2D23",
"@ 	c #513C27",
"# 	c #493625",
"$ 	c #4D3926",
"% 	c #443223",
"& 	c #60462B",
"* 	c #584E48",
"= 	c #5B4229",
"- 	c #473A34",
"; 	c #18110F",
"> 	c #42301F",
", 	c #5F4529",
"' 	c #4F4138",
") 	c #5D4A3C",
"! 	c #47382D",
"~ 	c #54402F",
"{ 	c #664B2D",
"] 	c #533D28",
"^ 	c #5F514C",
"/ 	c #4E3F34",
"( 	c #000000",
"_ 	c #261C19",
": 	c #221A15",
"< 	c #352921",
"[ 	c #33251A",
"} 	c #6E5B4A",
"| 	c #644D39",
"1 	c #090605",
"2 	c #1B1412",
"3 	c #2F2420",
"4 	c #3B2A1C",
"5 	c #5B4838",
"6 	c #66503C",
"7 	c #634B34",
"8 	c #412F1D",
"9 	c #74604E",
"0 	c #69503B",
"a 	c #302521",
"b 	c #291F1B",
"c 	c #2D2014",
"d 	c #6A5636",
"e 	c #23180E",
"f 	c #614D2F",
"g 	c #382716",
"h 	c #37281D",
"i 	c #332516",
"j 	c #5A462E",
"k 	c #866842",
"l 	c #80633E",
"m 	c #5D482E",
"n 	c #715635",
"o 	c #776B64",
"p 	c #574230",
"q 	c #735E4D",
"r 	c #504137",
"s 	c #817167",
"t 	c #684B2D",
"u 	c #614932",
"v 	c #2B1E14",
"w 	c #5C432A",
"x 	c #654A2B",
"y 	c #5A4126",
"z 	c #3C2A17",
"A 	c #4A341F",
"B 	c #433732",
"C 	c #574128",
"D 	c #45362A",
"E 	c #4B392A",
"F 	c #511A0F",
"G 	c #980000",
"H 	c #A50000",
"I 	c #551B10",
"J 	c #453320",
"K 	c #4A3C35",
"L 	c #634D39",
"M 	c #492A19",
"N 	c #B30000",
"O 	c #69180D",
"P 	c #4C3824",
"Q 	c #694C2C",
"R 	c #150D07",
"S 	c #AC0000",
"T 	c #BB0702",
"U 	c #C30E05",
"V 	c #CB1507",
"W 	c #C91306",
"X 	c #B50100",
"Y 	c #62150D",
"Z 	c #5A4129",
"` 	c #92754B",
" .	c #583F27",
"..	c #AF0000",
"+.	c #D31D0A",
"@.	c #4F3A26",
"#.	c #9C7D51",
"$.	c #3F2D1D",
"%.	c #800000",
"&.	c #4F2215",
"*.	c #706765",
"=.	c #9C7C4E",
"-.	c #615046",
";.	c #7D6242",
">.	c #5C504A",
",.	c #A88B67",
"'.	c #4B3725",
").	c #7D0000",
"!.	c #692722",
"~.	c #A48459",
"{.	c #6E5B4C",
"].	c #660502",
"^.	c #4F2615",
"/.	c #C51005",
"(.	c #B90501",
"_.	c #3F2D1C",
":.	c #6F5839",
"<.	c #665133",
"[.	c #3A2A1B",
"}.	c #110B09",
"|.	c #87693F",
"1.	c #412F21",
"2.	c #4B3621",
"3.	c #CF1908",
"4.	c #D11B09",
"5.	c #8E0202",
"6.	c #4D3A2A",
"7.	c #523C23",
"8.	c #564027",
"9.	c #C71206",
"0.	c #720000",
"a.	c #60140A",
"b.	c #9B0000",
"c.	c #8A0000",
"d.	c #3F2E1D",
"e.	c #4A3723",
"f.	c #940000",
"g.	c #620502",
"h.	c #796D66",
"i.	c #473422",
"j.	c #5A0000",
"k.	c #830000",
"l.	c #827268",
"m.	c #6B5748",
"n.	c #4D3925",
"o.	c #4F0000",
"p.	c #870000",
"q.	c #A48354",
"r.	c #710000",
"s.	c #6B0000",
"t.	c #490000",
"u.	c #A20000",
"v.	c #705938",
"w.	c #6F6663",
"x.	c #3B2919",
"y.	c #910000",
"z.	c #780000",
"A.	c #5D0000",
"B.	c #9E0000",
"C.	c #503B26",
"D.	c #900000",
"E.	c #860000",
"F.	c #750000",
"G.	c #7A0000",
"H.	c #8E0000",
"I.	c #42311F",
"J.	c #990000",
"K.	c #410000",
"L.	c #8C0000",
"M.	c #600000",
"N.	c #352616",
"O.	c #970000",
"P.	c #A30000",
"Q.	c #440000",
"R.	c #463423",
"S.	c #420000",
"T.	c #670000",
"U.	c #7F0000",
"V.	c #730000",
"W.	c #6A0000",
"X.	c #342116",
"Y.	c #3D2C1C",
"Z.	c #A00000",
"`.	c #6E0000",
" +	c #6C0904",
".+	c #201711",
"++	c #7C613D",
"@+	c #430000",
"#+	c #5E0000",
"$+	c #570000",
"%+	c #5E0503",
"&+	c #836540",
"*+	c #574D48",
"=+	c #7A5E3D",
"-+	c #524339",
";+	c #7A6349",
">+	c #5B0000",
",+	c #3B2718",
"'+	c #826B54",
")+	c #684F35",
"!+	c #6A5334",
"~+	c #866C4E",
"{+	c #3F2E1E",
"]+	c #4D140C",
"^+	c #58422D",
"/+	c #A99806",
"(+	c #FFE700",
"_+	c #443220",
":+	c #554C0B",
"<+	c #FF9900",
"[+	c #6B0D00",
"}+	c #8B0000",
"|+	c #0D0807",
"1+	c #A3804D",
"2+	c #533C22",
"3+	c #7F6A00",
"4+	c #540000",
"5+	c #412F1E",
"6+	c #896A43",
"7+	c #5C4327",
"8+	c #6E4900",
"9+	c #F59300",
"0+	c #C67802",
"a+	c #543C23",
"b+	c #4D0000",
"c+	c #2E221A",
"d+	c #694600",
"e+	c #6B4700",
"f+	c #443222",
"g+	c #4B3724",
"h+	c #3E1D11",
"i+	c #630000",
"j+	c #362315",
"k+	c #493623",
"l+	c #6B5747",
"m+	c #563A02",
"n+	c #603F00",
"o+	c #6A4600",
"p+	c #613F00",
"q+	c #473018",
"r+	c #413020",
"s+	c #5E3D00",
"t+	c #402C0C",
"u+	c #6F6864",
"v+	c #4C3926",
"w+	c #654300",
"x+	c #573A02",
"y+	c #503C27",
"z+	c #554944",
"A+	c #7A6E68",
"B+	c #402F21",
"C+	c #493105",
"D+	c #674400",
"E+	c #614000",
"F+	c #211914",
"G+	c #0A0807",
"H+	c #543802",
"I+	c #36281F",
"J+	c #60534B",
"K+	c #4A3A28",
"L+	c #746150",
"M+	c #56441E",
"N+	c #644200",
"O+	c #1D0A05",
"P+	c #907A00",
"Q+	c #332511",
"R+	c #740000",
"S+	c #DD8400",
"T+	c #624000",
"U+	c #38291C",
"V+	c #FA9A00",
"W+	c #D88100",
"X+	c #604F45",
"Y+	c #6B180D",
"Z+	c #BF6E00",
"`+	c #503A23",
" @	c #2A1F17",
".@	c #4C0000",
"+@	c #362617",
"@@	c #350403",
"#@	c #480000",
"$@	c #3D2D1C",
"%@	c #AB8E68",
"&@	c #9F8872",
"*@	c #8E7247",
"=@	c #514742",
"  . + @ @ @ # # $ % % $ @ + & * = @ $ - @ ; . . @ @ @ @ + @ % > # @ # , ' ) @ @ ! ~ # = @ @ @ @ @ + { @ @ @ @ @ # ] ^ ] @ # / % ",
"( _ + @ @ @ # # : : ; < @ [ ] } = @ $ | $ 1 2 3 @ @ @ @ + 4 2   < $ % # 5 6 @ @ ~ 7 8 = @ @ @ @ @ + { @ @ @ @ @ 4 # 9 ] @ $ 0 4 ",
"( ( a # @ @ # 2 b a 4 @ @ c d 8 4 # # # e ( ( _ + @ @ @ _ 2 a . @ @ > f % g # # # h i ] @ @ @ @ @ + { @ @ @ # @ > j g % # # %   ",
"( ( + $ @ @ % 1 ; a % @ @ < k $ = = = = %   ( _ $ @ @ @   ( a < @ @ % l ] ] = = = ] % = @ @ # $ @ [ = @ @ @ # @ m n $ = = = = 4 ",
"  _ $ = @ @ %   ; . a @ @ + @ o , @ ! p # : 2 + { @ @ @ 2 ( . . % ] # @ * q @ $ r ] % = @ @ # # @ + { @ @ @ & @ # $ s = $ - = + ",
"_ 4 t = % @ > ( [ < . < % [ + ] @ @ p u # a v w { % @ @ ( 2 % 2 % < % b @ ] @ $ 0 ] + @ @ @ # # @ [ = @ @ @ @ @ 8 w = @ $ | = + ",
"x @ , @ @ @ 8   + + ; % % 2 + @ @ @ @ @ > y @ & @ @ @ @ 1 . # ; < # _ _ @ @ @ @ @ @ z = @ @ @ @ @ + { @ @ @ @ @ z w @ @ @ @ @ c ",
"= @ @ @ @ @ 8 $ $ $ % + # v + @ @ @ @ @ > A @ @ @ @ @ @ i @ $ % % % 4 _ @ @ @ @ @ @ i ] @ @ @ @ @ [ x @ @ @ @ @ % w @ @ $ $ @ c ",
"@ @ @ @ ] ] 8 y $ B = # r i + @ @ @ @ @ % % @ @ @ @ C @ z = D E F G H H G I J @ @ @ [ @ @ @ # $ @ c x $ K ] ! p # w @ @ @ @ @ [ ",
"@ @ = = = = 8 y $ L = $ L [ < $ @ @ , @ # # @ @ , @ { @ z M N N N N N N N N N N O P + @ @ @ @ @ @ c x $ 0 ] ~ u # w @ @ @ @ @ + ",
"x @ = = C Q 8 g > > > v   ( . R $ { @ @ % w @ @ x @ t = S N N T T U U V W X N N N N Y Z @ @ = = @ c % > % % # % g = @ @ = C @ h ",
"x @ { = @ x 8 `  .y   2 .   $ % $ = @ @ % y @ & { @ = ..N X +.+.+.+.+.+.+.+.+.+.N N N N @.@ @ @ @ c #.y w w , $ c @ @ @ @ @ @ 4 ",
"x $ @ @ $ @ # w ! p a : 2 a { @ @ @ @ @ # , $ $ @ $.%.N N +.+.+.+.+.+.+.+.+.+.+.+.+.N N N &.$ $ @ + & - ] * = @ # w @ @ $ $ @ + ",
"& *.=.% -.= % y ;.k % a b : = @ @ @ , @ % y >.,.'.).H N N +.+.+.+.+.+.+.+.+.+.+.+.+.+.N N N !.L @ [ x ~.] {.= @ 4 ] @ @ @ @ @ [ ",
"x & @ @ , @ # = @ # @ @ 3 : @ @ = @ t ] % y C C ].).H N N V +.+.+.+.+.+.+.+.+.+.+.+.+.N N N N ^.@ + & @ @ @ @ @ v @ @ @ $ $ @ c ",
"= @ @ @ @ @ % % @ $ @ % % a @ @ x @ & = > # @ @ ).).G N N N V +./.N (.V +.+.+.+.+.+.+.T N N N N _.[ @ @ @ @ @ @ 4 @ @ @ # # @ c ",
":.$ 4 4 4 . ( > @ @ > @ @ < , @ , @ @ @ > <.# [.).).).N N N N N N N N N N X +.+.+.+.+.N N N N N N }.@ @ @ @ = @ % = @ @ # # @ c ",
"|.w = = ] v ( @ @ @   1.@ 4 , @ = { @ @ % l = 2.).).).N N N N N N N N N N N N N 3.+.4.N N N N N N 5.& @ @ @ = @ 8 = @ @ # # @ h ",
"& K = @ $ . 1 y @ + < < @ 4 { @ = = % @ # , ! 6.).).).).N N N N N N N N N N N N N N N N N /.+.X N N 7.@ @ % @ @ % w @ @ $ $ @ + ",
"] L 8.@ $ + b , @ $ $ $ @ c { @ @ @ @ @ % # p u ).).).)...N N N N N N N N N N N N N N N N 9.+.N N N 0.@ @ @ @ @ z w @ @ @ @ @ [ ",
"x @ @ @ @ @ % w @ @ @ @ @ + { @ @ @ @ @ # , @ @ a.).).).).b.N N N N N N N N N N N N N N N N N N N N c.d.@ @ @ @ # w @ @ @ @ @ + ",
"x @ @ @ @ @ % y @ @ @ @ @ + { % @ @ @ % # , @ @ e.).).).).).f.N N N N N N N N N N N N N N N N N N N ).g.@ @ @ @ # w % @ @ @ % + ",
"x @ # a @ @ # , @ @ @ @ @ < = h.& @ # -.] y @ @ i.j.).).).).).k.N N N N N N N N N N N N N N N N N N ).).@ @ @ @ % % l.= @ % m.1.",
" .@ # a @ @ # , @ @ @ @ @ c [ 4 [ + + % e A @ n.o.o.).).).).).).).N N N N N N N N N N N N N N N N p.).).@ @ @ @   4 g 4 + + % R ",
"x @ _ _ $ @ % ] @ @ @ % % : q.& { { { { % y @ r.s.o.t.).).).).).).).k.N N N N N N N N N N N N N u.).).).@ @ 1.< v.k & { { { & [ ",
"x @ _   + @ % ] @ @ @ % a a , w.& @ $ $ # , x.).).o.o.t.).).).).).).).).y.N N N N N N N N N N %.).).).).@ @ < a # $ h.= @ % @ + ",
"@ @ [ . + @ % ] @ @ $ $ # b < = @ @ r 0 # # z.).).A.o.o.).).).).).).).).).).).).b.N N N B.).).).).).).).@ % @ + b < , @ $ -.& + ",
", @ < a $ @ % ] @ @ @ @ < 2 + @ @ @ ] ] % C.D.E.).).o.o.o.F.).).F.G.N N H.z.).).).).).).).).).).).).).).@ @ $ < ; # @ @ @ = @ [ ",
", @ + + $ @ # w @ @ @ @ 3 2 + @ @ @ @ @ % I.J.D.).).).o.o.o.K.).).c.N N N N L.M.).).).).).).).).).).).).@ @ # a ; # @ @ @ @ @ c ",
"@ @ @ @ + @ > y @ + $ + b 1 + @ @ @ @ @ > N.O.P.).).).).o.o.o.Q.).).N N N N N 0.o.).).).).).G.).).).).).4 % < : ; # @ @ @ @ @ v ",
"@ @ @ @ @ @ 8 y # -.= a (   < $ @ { = @ # R.E.P.).).).).).o.o.o.).).y.N N N N N S.o.).).).T.).).).).).).} D _ ( : % @ @ Q ] @ + ",
", @ @ @ & @ > # $ % < : (   a < @ { = @ # = F.P.U.).).).).).G.o.V.).).%.N N N N W.o.).G.V.).).).).).).X.% <   ( : a % @ Q ] @ + ",
"x @ @ @ @ @ 8 u z z z % 8 R % @ % & @ @ % y Y.Z.P.).).).).).).o.S.).).).).).).).`.o.G.o.).).).).).). +z z z # g .+$ $ $ & @ @ [ ",
"x @ @ @ @ @ % ++] ] ] ] = < , @ @ @ @ @ # , @ W.P.b.).).).).).).@+#+).).).).).).@+$+).).).).).).).%+&+$ = $ w ] > = @ @ @ @ @ + ",
"& *+=+$ r ] % w 6 ;.^ q @ < , @ & = @ @ % w -+;+).P.f.).).).).).t.P.>+).).).).).).).).).).).).).,+< & '+= o , @ 1.= ] x @ @ @ h ",
"& {.++$ 0 ] % w )+!+] ] @ c @ & t ] @ @ % y ) ~+{+).U.b.).).).).).).).).).).).).).).).).).).]+^+@ < { ++@ = @ @ v @ Q & @ @ @ c ",
", @ @ @ @ @ % % @ % # # @ [ @ , x @ @ @ % @ @ @ /+(+`.).).).).).).).).).).).).).).).).V._+@ @ @ @ < @ @ % # $ @ [ @ Q = @ @ @ c ",
"g + [ [ [ + .+> @ @ a % @ + & @ { @ @ @ > .++ :+(+(+<+[+).).).).).).).).).}+P.).).W.|+4 4 4 c < <   @ @ # a $ @ % = = = @ @ @ c ",
"1+x , , = .+( # @ + 1 $ @ [ = @ @ @ g @ % =.2+3+(+<+<+<+[+).).).).).).).).r.4+o.5+@ d 6+x = { $ ( ( = @ _   = @ 4 ] @ @ % % @ [ ",
"x % @ @ @ c ( y @ + b a @ + { @ @ @ + @ # 7+8+8+9+<+<+<+0+a+`.).).).).).).).b+c+@ @ # w % @ @ @ ( ( x @ . . + @ # w @ @ # # @ + ",
"= -., @ # < : , @ % % % @ c { @ @ @ @ @ % d+8+8+e+9+<+<+f+, @ g+h+W.z.).i+j+k+@ @ @ % $ l+= @ % b b { @ + # % @ z w @ @ @ @ @ h ",
", = @ @ @ # % , @ @ @ @ @ < { @ @ @ @ @ m+8+n+8+o+8+p+q+# , @ @ @ @ % , @ @ @ @ @ @ 1.= = @ @ @ # + x @ @ @ @ @ % w @ @ @ @ @ h ",
"x @ @ @ @ @ % y @ @ @ @ @ + { # @ @ @ r+8+s+8+8+8+8+t+@ 8 = @ @ @ @ # & $ $ @ @ $ @ + $ # $ @ @ @ [ & @ @ @ @ @ # w # @ @ @ $ + ",
"x @ @ @ @ @ # , @ @ @ @ @ + , u+& @ v+8+w+8+8+8+8+x+y+@ # , @ @ @ @ # , z+q @ @ K | _   a # @ @ @ + @ % c 4 @ @ # # A+= @ % -.% ",
", @ @ @ @ @ # , @ @ @ @ @ c % @ % B+8+8+8+8+8+8+C+# @ @ # , @ @ @ @ > i $ # % % @ $ ( ( . 1.@ @ @ + 4 ; _ [ % @ e % @ % % # ] e ",
", @ @ @ @ @ # , @ @ @ % @ c #.y y D+8+o+8+8+8+E+F+# @ @ # , @ @ $ $ [ ` , y , , , $ ( ( 2 3 @ @ @ + G+. < $ @ @ <.++y w , , ] e ",
"x @ @ @ + @ % $ @ @ @ = @ + & >.H+8+E+8+8+8+e+I+  . @ @ h ] @ @ $ < a w ' ) @ @ $ @ _ ( : @ @ @ @ [ ( _ a % = @ # ] J+] @ $ @ + ",
"= @ @ @ + @ # , @ @ @ = @ + x K+8+s+8+8+o+8+_++   . @ @ # , @ @ 1.# 3 % -+6 @ % -.= .   + & @ @ @ [ ( _ : a $ @ + + L+] $ z+& + ",
"= @ @ @ % @ % $ @ @ @ @ @ c M+w+N+8+8+8+8+[.@ $ a < @ @ 4 ] @ @ @ # _ _ @ @ @ @ , @ [ 4 w { # $ @ c 2 # _ 4 + % ; # @ @ @ , @ h ",
"x @ @ @ @ @ # , @ @ @ @ @ O+(+P+8+8+8+D+Q+y @ + a # @ @ # w @ @ @ + _ _ @ @ @ @ @ @ z = ] ] @ @ @ c . # _ _ + < ; # @ @ @ @ @ c ",
"@ @ @ @ $ @ > y @ # @ @ R+L.(+<+S+e+T+e+> 8 @ @ @ + @ @ z = $ $ # < 2 _ @ @ @ @ @ @ c @ @ @ @ @ @ c { @ # @ % @ ; # @ @ @ @ @ c ",
"@ @ @ @ $ @ 8 y $ z+, U+U N V+<+<+<+W+> % % @ @ @ $ @ @ z = - L a : ( _ @ @ = = @ @ 4 @ @ @ @ , @ c x % X+= K | 2 # @ @ @ @ @ 4 ",
"= @ @ @ = @ 8 @ @ , @ Y++.N N f.Z+W+`+@ # @ @ @ @ = @ @ g = $ @ .     . < $ = t @ @ % ] @ x @ x = c , @ , @ # c . b # @ , = @ + ",
"x @ @ @ = @ 8 .+v < [  @T N +.G.o..@= @ % y @ @ @ = @ @   v 2 2 2 _ ( _ # % w = @ @ 8 = @ x @ = { c v v v v _   2 4 .+$ x @ @ [ ",
"x @ @ @ @ @ % #.{ { & & N N Z.o.o.+@$ @ # , @ @ @ @ @ @ :.k & { & { % $ @ @ @ @ @ @ # = = { @ @ , [ q.& ] .   3 4 ] @ @ @ @ @ + ",
"x % @ @ % @ # , K L * {.k+@@o.#@$@@ $ @ # , # # @ % @ @ # $ X+# o = # , @ @ , @ @ @ # = % @ $ # @ + & z+8.a 2 _ # w @ @ @ @ @ + ",
"& A+=.% m.= % y ++;.C = @ c @ @ @ @ @ @ > y J+%@# -.& @ 8 w =.@ & @ > > ] t & @ @ @ z @ &@;.r 0 @ [ x =.$ % < a v @ @ @ = = @ c ",
"x = @ @ = @ # @ @ @ @ @ @ c @ @ @ @ % @ % y ] ] @ = @ @ % ] $ $ @ @ > % w Q @ @ @ @ z = = @ ] ] @ + = @ % @ # a 4 @ = C = t @ c ",
"% # % % % # i % @ @ @ @ @ + = @ @ @ + @ > g # % % % # % c @ @ + < $ # @ @ x @ @ @ @ e % % % % % % : @ @ @ @ % % % ] = = @ & @ c ",
"=., @ ] y , i > @ @ @ & @ [ = @ @ @ + @ > *@w y $ y b 1 c @ $ _ z = % # @ C @ 4 @ @ f ++w $ y %   ( ] @ % v & @ g ] ] ] @ @ @ c ",
"x $ @ @ @ # # , @ @ $ $ @ + { @ @ @ + @ # , $ $ @ @ % ( z = # : a # # , @ @ @ + @ @ # = $ @ @ @ ( ( x @ 4 . + @ # w @ x , $ @ + ",
"& z+, @ $ =@ ., @ @ $ $ @ [ { @ @ @ $ @ # , K | @ @ <   % , # 3 % # % y @ @ @ # @ @ # @ -.= @ % 2 2 x @ . 1.+ @ 8 w @ C $ $ @ + ",
"= & @ @ @ & # , @ @ @ @ @ [ { @ @ @ @ @ % # = y @ @ $ + # , @ @ @ @ % y @ @ @ @ @ @ h ] , @ @ @ + < { @ @ @ @ @ 8 w @ @ @ @ @ [ ",
"x @ @ @ @ @ % y @ @ @ @ @ + { @ @ @ @ @ # , @ @ @ @ @ @ 8 = @ @ @ @ # & @ @ @ @ @ @ # = @ @ @ @ @ [ x @ @ @ @ @ # w @ @ @ @ @ + "};
