/* XPM */
static char * wood_chest1_xpm[] = {
"64 64 128 2",
"  	c #130D0B",
". 	c #2C211D",
"+ 	c #3C2D23",
"@ 	c #513C27",
"# 	c #493625",
"$ 	c #4D3926",
"% 	c #443223",
"& 	c #60462B",
"* 	c #584E48",
"= 	c #5B4229",
"- 	c #473A34",
"; 	c #18110F",
"> 	c #42301F",
", 	c #5F4529",
"' 	c #4F4138",
") 	c #5D4A3C",
"! 	c #47382D",
"~ 	c #54402F",
"{ 	c #664B2D",
"] 	c #533D28",
"^ 	c #5F514C",
"/ 	c #4E3F34",
"( 	c #000000",
"_ 	c #261C19",
": 	c #221A15",
"< 	c #352921",
"[ 	c #33251A",
"} 	c #6E5B4A",
"| 	c #644D39",
"1 	c #090605",
"2 	c #1B1412",
"3 	c #2F2420",
"4 	c #3B2A1C",
"5 	c #5B4838",
"6 	c #66503C",
"7 	c #634B34",
"8 	c #412F1D",
"9 	c #74604E",
"0 	c #69503B",
"a 	c #302521",
"b 	c #291F1B",
"c 	c #2D2014",
"d 	c #6A5636",
"e 	c #23180E",
"f 	c #614D2F",
"g 	c #382716",
"h 	c #37281D",
"i 	c #332516",
"j 	c #5A462E",
"k 	c #866842",
"l 	c #80633E",
"m 	c #5D482E",
"n 	c #715635",
"o 	c #776B64",
"p 	c #574230",
"q 	c #735E4D",
"r 	c #504137",
"s 	c #817167",
"t 	c #684B2D",
"u 	c #614932",
"v 	c #2B1E14",
"w 	c #5C432A",
"x 	c #654A2B",
"y 	c #5A4126",
"z 	c #3C2A17",
"A 	c #4A341F",
"B 	c #433732",
"C 	c #574128",
"D 	c #45362A",
"E 	c #4A3C35",
"F 	c #634D39",
"G 	c #694C2C",
"H 	c #150D07",
"I 	c #22170D",
"J 	c #92754B",
"K 	c #583F27",
"L 	c #665133",
"M 	c #7C613D",
"N 	c #9C7D51",
"O 	c #706765",
"P 	c #9C7C4E",
"Q 	c #615046",
"R 	c #7D6242",
"S 	c #5C504A",
"T 	c #A88B67",
"U 	c #554944",
"V 	c #A48459",
"W 	c #97846F",
"X 	c #6E5B4C",
"Y 	c #6F5839",
"Z 	c #5E4A32",
"` 	c #87693F",
" .	c #412F21",
"..	c #745837",
"+.	c #564027",
"@.	c #485262",
"#.	c #5E718E",
"$.	c #827268",
"%.	c #6B5748",
"&.	c #23252B",
"*.	c #30333F",
"=.	c #2A2C35",
"-.	c #F6F58A",
";.	c #F8F644",
">.	c #FFFFFF",
",.	c #705938",
"'.	c #F6F0C7",
").	c #796D66",
"!.	c #FFFE82",
"~.	c #6A5334",
"{.	c #201711",
"].	c #574D48",
"^.	c #7A5E3D",
"/.	c #826B54",
"(.	c #684F35",
"_.	c #282C3C",
":.	c #A3804D",
"<.	c #6F6864",
"[.	c #7A6E68",
"}.	c #0A0807",
"|.	c #60534B",
"1.	c #746150",
"2.	c #604F45",
"3.	c #A48354",
"4.	c #AB8E68",
"5.	c #9F8872",
"6.	c #8E7247",
"7.	c #514742",
"  . + @ @ @ # # $ % % $ @ + & * = @ $ - @ ; . . @ @ @ @ + @ % > # @ # , ' ) @ @ ! ~ # = @ @ @ @ @ + { @ @ @ @ @ # ] ^ ] @ # / % ",
"( _ + @ @ @ # # : : ; < @ [ ] } = @ $ | $ 1 2 3 @ @ @ @ + 4 2   < $ % # 5 6 @ @ ~ 7 8 = @ @ @ @ @ + { @ @ @ @ @ 4 # 9 ] @ $ 0 4 ",
"( ( a # @ @ # 2 b a 4 @ @ c d 8 4 # # # e ( ( _ + @ @ @ _ 2 a . @ @ > f % g # # # h i ] @ @ @ @ @ + { @ @ @ # @ > j g % # # %   ",
"( ( + $ @ @ % 1 ; a % @ @ < k $ = = = = %   ( _ $ @ @ @   ( a < @ @ % l ] ] = = = ] % = @ @ # $ @ [ = @ @ @ # @ m n $ = = = = 4 ",
"  _ $ = @ @ %   ; . a @ @ + @ o , @ ! p # : 2 + { @ @ @ 2 ( . . % ] # @ * q @ $ r ] % = @ @ # # @ + { @ @ @ & @ # $ s = $ - = + ",
"_ 4 t = % @ > ( [ < . < % [ + ] @ @ p u # a v w { % @ @ ( 2 % 2 % < % b @ ] @ $ 0 ] + @ @ @ # # @ [ = @ @ @ @ @ 8 w = @ $ | = + ",
"x @ , @ @ @ 8   + + ; % % 2 + @ @ @ @ @ > y @ & @ @ @ @ 1 . # ; < # _ _ @ @ @ @ @ @ z = @ @ @ @ @ + { @ @ @ @ @ z w @ @ @ @ @ c ",
"= @ @ @ @ @ 8 $ $ $ % + # v + @ @ @ @ @ > A @ @ @ @ @ @ i @ $ % % % 4 _ @ @ @ @ @ @ i ] @ @ @ @ @ [ x @ @ @ @ @ % w @ @ $ $ @ c ",
"@ @ @ @ ] ] 8 y $ B = # r i + @ @ @ @ @ % % @ @ @ @ C @ z = D ~ $ E # _ @ @ @ @ @ @ [ @ @ @ # $ @ c x $ E ] ! p # w @ @ @ @ @ [ ",
"@ @ = = = = 8 y $ F = $ F [ < $ @ @ , @ # # @ @ , @ { @ z = p u $ | g . % @ @ , @ @ + @ @ @ @ @ @ c x $ 0 ] ~ u # w @ @ @ @ @ + ",
"x @ = = C G 8 g > > > v   ( . H $ { @ @ % w @ @ x @ t = e > > > h 2 ( _ I 4 w = @ @ % = @ @ = = @ c % > % % # % g = @ @ = C @ h ",
"x @ { = @ x 8 J K y   2 .   $ % $ = @ @ % y @ & { @ = = L M y i : . 2 4 $ % ] ] @ @ % = @ @ @ @ @ c N y w w , $ c @ @ @ @ @ @ 4 ",
"x $ @ @ $ @ # w ! p a : 2 a { @ @ @ @ @ # , $ $ @ $ @ @ # ] r % . 1 a & @ @ @ @ @ @ # = $ @ $ $ @ + & - ] * = @ # w @ @ $ $ @ + ",
"& O P % Q = % y R k % a b : = @ @ @ , @ % y S T $ U , @ 8 ] V $ a b . $ @ @ @ , @ @ > @ W R E F @ [ x V ] X = @ 4 ] @ @ @ @ @ [ ",
"x & @ @ , @ # = @ # @ @ 3 : @ @ = @ t ] % y C C @ , @ @ % = $ $ @ + . % @ = @ x = @ z w , @ = = @ + & @ @ @ @ @ v @ @ @ $ $ @ c ",
"= @ @ @ @ @ % % @ $ @ % % a @ @ x @ & = > # @ @ @ @ @ @ [ @ $ $ $ % 3 # @ x @ = { @ i ] @ @ @ @ @ [ @ @ @ @ @ @ 4 @ @ @ # # @ c ",
"Y $ 4 4 4 . ( > @ @ > @ @ < , @ , @ @ @ > L # > + z .   c @ @ % # ] % ] @ & @ @ @ @ % Z % + z % %   @ @ @ @ = @ % = @ @ # # @ c ",
"` w = = ] v ( @ @ @    .@ 4 , @ = { @ @ % l = = ] = 4 ( g = @ c [ $ % ] @ @ { = @ @ m ..= ] = w = < & @ @ @ = @ 8 = @ @ # # @ h ",
"& E = @ $ . 1 y @ + < < @ 4 { @ = = % @ # , ! p @ @ 4 1 > = # a < # % , @ @ & % @ @ # ] r ] @ $ / % { @ @ % @ @ % w @ @ $ $ @ + ",
"] F +.@ $ + b , @ $ $ $ @ c { @ @ @ @ @ % # p u @ @ % b # , $ # $ $ > y @ @ @ @ @ @ 4 @ 0 ] @ # 0 % { @ @ @ @ @ z w @ @ @ @ @ [ ",
"x @ @ @ @ @ % w @ @ @ @ @ + { @ @ @ @ @ # , @ @.@.@.#.#.#.#.@ @ @ @ # & @ @ @ @ @ @ # = @ @ @ @ @ < x @ @ @ @ @ # w @ @ @ @ @ + ",
"x @ @ @ @ @ % y @.@.@.@.@.@.@.@.#.#.#.#.#.#.#.#.#.#.#.#.#.#.#.#.#.#.#.#.#.#.@ @ # $ # = @ @ @ @ @ h { @ @ @ @ @ # w % @ @ @ % + ",
"x @ # a @ @ # , @.@.@.@.@.@.@.@.#.#.#.#.#.#.#.#.#.#.#.#.#.#.#.#.#.#.#.#.#.#.@ @ r 0 % = @ + + @ @ + { @ @ @ @ @ % % $.= @ % %. .",
"K @ # a @ @ @.@.&.&.&.&.&.&.@.@.#.#.*.*.*.*.*.*.*.*.*.*.*.*.=.=.=.-.-.;.#.#.+ + % 4 i ] @ + + @ @ + { @ @ @ @ @   4 g 4 + + % H ",
"x @ _ _ $ @ @.@.&.&.&.&.&.&.@.@.#.#.*.*.*.*.*.*.*.*.*.*.*.=.=.-.-.-.;.;.;.#.{ { >.= 8 = % 2 + $ @ < & @ @ @  .< ,.k & { { { & [ ",
"x @ _   + @ @.@.&.&.&.&.&.&.@.@.#.#.*.*.*.*.*.*.*.*.*.*.=.=.-.-.;.'.'.'.;.;.@ @ % >.# = % 2 : # @ < & @ @ @ < a # $ ).= @ % @ + ",
"@ @ [ . + @ @.@.&.&.&.&.&.&.@.@.#.#.*.*.*.*.*.*.*.=.=.=.=.-.;.;.'.'.!.!.'.;.;.% %.= + >.$ b a # @ < & @ @ % @ + b < , @ $ Q & + ",
", @ < a $ @ @.@.&.&.&.&.&.&.@.@.#.#.*.*.*.*.*.=.=.=.=.-.-.-.;.;.!.!.;.;.!.'.;.;.C @ 4 = >.< + $ @ < & @ @ @ $ < ; # @ @ @ = @ [ ",
", @ + + $ @ @.@.&.&.&.&.&.&.@.@.#.#.*.*.*.=.=.=.=.-.-.-.;.;.;.;.;.;.;.;.;.;.;.;.;.;.4 = # + % $ @ < x @ @ @ # a ; # @ @ @ @ @ c ",
"@ @ @ @ + @ @.@.&.&.&.&.&.&.@.@.#.#.*.*.=.=.=.-.-.!.'.;.;.;.;.;.;.;.;.;.;.;.'.'.'.!.;.@ @ @ # # @ c x @ 4 % < : ; # @ @ @ @ @ v ",
"@ @ @ @ @ @ @.@.&.&.&.&.&.&.@.@.#.#.*.=.=.-.-.!.!.'.;.;.;.;.;.!.!.!.;.;.;.;.;.;.'.'.!.!.@ @ @ @ @ c x % } D _ ( : % @ @ G ] @ + ",
", @ @ @ & @ @.@.&.&.&.&.&.&.@.@.#.#.=.=.-.-.!.'.'.;.;.;.;.;.!.!.'.'.'.;.;.;.;.;.;.;.;.;.;.;.= = @ c = % % <   ( : a % @ G ] @ + ",
"x @ @ @ @ @ 8 u @.@.@.@.@.@.@.@.@.@.@.@.@.@.@.@.@.@.#.#.#.#.#.#.#.#.#.#.#.#.#.#.#.#.#.#.#.#.#.#.@ c ~.z z z # g {.$ $ $ & @ @ [ ",
"x @ @ @ @ @ % M @.@.@.@.@.@.@.@.@.@.@.@.@.@.@.@.@.@.#.#.#.#.#.#.#.#.#.#.#.#.#.#.#.#.#.#.#.#.#.#.@ < k $ = $ w ] > = @ @ @ @ @ + ",
"& ].^.$ r ] % w 6 R ^ q @ < , @ *.*.&.&.&.&.&.&.*.*.@.@.*.*.*.*.*.*.*.*.*.*.*.*.*.*.*.*.*.*.@.@.@ < & /.= o , @  .= ] x @ @ @ h ",
"& X M $ 0 ] % w (.~.] ] @ c @ & *.*.&.&.&.&.&.&.*.*.@.@.*.*.*.*.*.*.*.*.*.*.*.*.*.*.*.*.*.*.@.@.@ < { M @ = @ @ v @ G & @ @ @ c ",
", @ @ @ @ @ % % @ % # # @ [ @ , @.@.&.&.&.&.&.&.@.@.#.#._._._._._._._._._._._._._._._._._.@.#.#.@ < @ @ % # $ @ [ @ G = @ @ @ c ",
"g + [ [ [ + {.> @ @ a % @ + & @ @.@.&.&.&.&.&.&.@.@.#.#._._._._._._._._._._._._._._._._._.@.#.#.<   @ @ # a $ @ % = = = @ @ @ c ",
":.x , , = {.( # @ + 1 $ @ [ = @ @.@.&.&.&.&.&.&.@.@.#.#._._._._._._._._._._._._._._._._._.@.#.#.( ( = @ _   = @ 4 ] @ @ % % @ [ ",
"x % @ @ @ c ( y @ + b a @ + { @ @.@.&.&.&.&.&.&.@.@.#.#._._._._._._._._._._._._._._._._._.@.#.#.( ( x @ . . + @ # w @ @ # # @ + ",
"= Q , @ # < : , @ % % % @ c { @ @.@.&.&.&.&.&.&.@.@.#.#._._._._._._._._._._._._._._._._._.@.#.#.b b { @ + # % @ z w @ @ @ @ @ h ",
", = @ @ @ # % , @ @ @ @ @ < { @ @.@.&.&.&.&.&.&.@.@.#.#._._._._._._._._._._._._._._._._._.@.#.#.# + x @ @ @ @ @ % w @ @ @ @ @ h ",
"x @ @ @ @ @ % y @ @ @ @ @ + { # @.@.&.&.&.&.&.&.@.@.#.#._._._._._._._._._._._._._._._._._.@.#.#.@ [ & @ @ @ @ @ # w # @ @ @ $ + ",
"x @ @ @ @ @ # , @ @ @ @ @ + , <.@.@.&.&.&.&.&.&.@.@.#.#._._._._._._._._._._._._._._._._._.@.#.#.@ + @ % c 4 @ @ # # [.= @ % Q % ",
", @ @ @ @ @ # , @ @ @ @ @ c % @ @.@.&.&.&.&.&.&.@.@.#.#._._._._._._._._._._._._._._._._._.@.#.#.@ + 4 ; _ [ % @ e % @ % % # ] e ",
", @ @ @ @ @ # , @ @ @ % @ c N y @.@.&.&.&.&.&.&.@.@.#.#._._._._._._._._._._._._._._._._._.@.#.#.@ + }.. < $ @ @ L M y w , , ] e ",
"x @ @ @ + @ % $ @ @ @ = @ + & S @.@.@.@.@.@.@.@.@.@.#.#.#.#.#.#.#.#.#.#.#.#.#.#.#.#.#.#.#.#.#.#.@ [ ( _ a % = @ # ] |.] @ $ @ + ",
"= @ @ @ + @ # , @ @ @ = @ + x q @.@.@.@.@.@.@.@.@.@.#.#.#.#.#.#.#.#.#.#.#.#.#.#.#.#.#.#.#.#.#.#.@ [ ( _ : a $ @ + + 1.] $ U & + ",
"= @ @ @ % @ % $ @ @ @ @ @ c { @ @ @ = +.% $ @ $ a < @ @ 4 ] @ @ @ # _ _ @ @ @ @ , @ [ 4 w { # $ @ c 2 # _ 4 + % ; # @ @ @ , @ h ",
"x @ @ @ @ @ # , @ @ @ @ @ c { @ @ @ @ @ % y @ + a # @ @ # w @ @ @ + _ _ @ @ @ @ @ @ z = ] ] @ @ @ c . # _ _ + < ; # @ @ @ @ @ c ",
"@ @ @ @ $ @ > y @ # @ @ # + { @ @ @ % @ > 8 @ @ @ + @ @ z = $ $ # < 2 _ @ @ @ @ @ @ c @ @ @ @ @ @ c { @ # @ % @ ; # @ @ @ @ @ c ",
"@ @ @ @ $ @ 8 y $ U , % Q % { @ @ @ @ @ % % @ @ @ $ @ @ z = - F a : ( _ @ @ = = @ @ 4 @ @ @ @ , @ c x % 2.= E | 2 # @ @ @ @ @ 4 ",
"= @ @ @ = @ 8 @ @ , @ @ , < { @ @ @ = @ # @ @ @ @ = @ @ g = $ @ .     . < $ = t @ @ % ] @ x @ x = c , @ , @ # c . b # @ , = @ + ",
"x @ @ @ = @ 8 {.v < [ + h   = @ @ @ = @ % y @ @ @ = @ @   v 2 2 2 _ ( _ # % w = @ @ 8 = @ x @ = { c v v v v _   2 4 {.$ x @ @ [ ",
"x @ @ @ @ @ % N { { & & & [ = @ @ @ $ @ # , @ @ @ @ @ @ Y k & { & { % $ @ @ @ @ @ @ # = = { @ @ , [ 3.& ] .   3 4 ] @ @ @ @ @ + ",
"x % @ @ % @ # , E F * X @ + { @ @ @ $ @ # , # # @ % @ @ # $ 2.# o = # , @ @ , @ @ @ # = % @ $ # @ + & U +.a 2 _ # w @ @ @ @ @ + ",
"& [.P % %.= % y M R C = @ c @ @ @ @ @ @ > y |.4.# Q & @ 8 w P @ & @ > > ] t & @ @ @ z @ 5.R r 0 @ [ x P $ % < a v @ @ @ = = @ c ",
"x = @ @ = @ # @ @ @ @ @ @ c @ @ @ @ % @ % y ] ] @ = @ @ % ] $ $ @ @ > % w G @ @ @ @ z = = @ ] ] @ + = @ % @ # a 4 @ = C = t @ c ",
"% # % % % # i % @ @ @ @ @ + = @ @ @ + @ > g # % % % # % c @ @ + < $ # @ @ x @ @ @ @ e % % % % % % : @ @ @ @ % % % ] = = @ & @ c ",
"P , @ ] y , i > @ @ @ & @ [ = @ @ @ + @ > 6.w y $ y b 1 c @ $ _ z = % # @ C @ 4 @ @ f M w $ y %   ( ] @ % v & @ g ] ] ] @ @ @ c ",
"x $ @ @ @ # # , @ @ $ $ @ + { @ @ @ + @ # , $ $ @ @ % ( z = # : a # # , @ @ @ + @ @ # = $ @ @ @ ( ( x @ 4 . + @ # w @ x , $ @ + ",
"& U , @ $ 7.K , @ @ $ $ @ [ { @ @ @ $ @ # , E | @ @ <   % , # 3 % # % y @ @ @ # @ @ # @ Q = @ % 2 2 x @ .  .+ @ 8 w @ C $ $ @ + ",
"= & @ @ @ & # , @ @ @ @ @ [ { @ @ @ @ @ % # = y @ @ $ + # , @ @ @ @ % y @ @ @ @ @ @ h ] , @ @ @ + < { @ @ @ @ @ 8 w @ @ @ @ @ [ ",
"x @ @ @ @ @ % y @ @ @ @ @ + { @ @ @ @ @ # , @ @ @ @ @ @ 8 = @ @ @ @ # & @ @ @ @ @ @ # = @ @ @ @ @ [ x @ @ @ @ @ # w @ @ @ @ @ + "};
